<?xml version="1.0" encoding="UTF-8"?>
<svg version="1.1" xmlns="http://www.w3.org/2000/svg" width="419" height="600" viewBox="0 0 419 600">
<path d="M0 0 C3.16115776 1.36983503 3.9927092 1.9890638 6 5 C9.08021257 5.43723551 9.08021257 5.43723551 12.625 5.4375 C17.20793591 5.64410777 20.61552046 5.90938663 24.625 8.1875 C25.73875 8.785625 26.8525 9.38375 28 10 C30.81461761 8.98542854 32.89206842 7.39569916 35.125 5.4375 C39.34723491 1.8577791 41.45125573 1.55252062 47 2 C54.66437701 4.12644392 58.45964778 9.86263227 63 16 C68.11945651 22.90679793 74.29068077 27.12075363 81.57324219 31.52294922 C84.45150313 33.27480824 87.30738363 35.06082483 90.1640625 36.84765625 C100.75363195 43.44722169 111.27826075 50.00235726 122.53515625 55.421875 C125 57 125 57 126.0078125 59.0546875 C126 61 126 61 123.8125 63.375 C122.884375 64.24125 121.95625 65.1075 121 66 C117.80474218 70.13503953 116.28281102 73.97052572 114.796875 78.890625 C113.73380389 81.70463676 111.86506596 83.66866755 110 86 C110.33685108 88.1140369 110.33685108 88.1140369 111 90 C111.75023437 90.02578125 112.50046875 90.0515625 113.2734375 90.078125 C118.69412176 90.37851556 123.30675479 90.87971742 128.3125 93.0625 C132.47662002 94.86606791 135.39824092 95.75301512 140 95 C142.32580817 93.85401088 144.51996938 92.57478905 146.734375 91.2265625 C148.94674282 90.02883233 150.73430027 89.47753125 153.1875 89 C157.47224958 87.87613126 160.34833599 86.53555202 163 83 C164.65727055 79.42378461 165.85797535 75.76812966 167 72 C168.94871795 66.05128205 168.94871795 66.05128205 170 65 C172.8125 64.5625 172.8125 64.5625 176 65 C179.84652736 69.51067597 180.52481382 72.83747405 180.4375 78.6875 C180.43556641 80.64236328 180.43556641 80.64236328 180.43359375 82.63671875 C180 86 180 86 178.8203125 87.81640625 C176.46017088 89.35100477 174.0779338 90.27231656 171.4375 91.25 C166.10198717 93.37773784 161.73719317 96.00587647 157.15625 99.44921875 C155 101 155 101 152.84375 101.95703125 C150.47306851 103.29807353 150.10441319 104.53936742 149 107 C144.3333539 113.53987729 139.12168202 118.85334394 133 124 C117.94613947 137.26945896 112.6661111 154.86273067 111.375 174.25 C111.2439958 176.4996584 111.11682608 178.74956078 111 181 C110.01 181.33 109.02 181.66 108 182 C108.14308594 183.48113281 108.14308594 183.48113281 108.2890625 184.9921875 C108.39992188 186.27351562 108.51078125 187.55484375 108.625 188.875 C108.74101562 190.15117187 108.85703125 191.42734375 108.9765625 192.7421875 C108.98429688 193.81726563 108.99203125 194.89234375 109 196 C108.34 196.66 107.68 197.32 107 198 C106.6109438 201.3872476 106.6109438 201.3872476 108 205 C110.08932502 206.80958276 112.25793707 208.16685717 114.6328125 209.578125 C117.72178073 211.43354486 120.28882911 213.63641513 123 216 C122.125 220.875 122.125 220.875 121 222 C120.76179079 224.03270562 120.76179079 224.03270562 120.75 226.375 C120.72421875 227.16648437 120.6984375 227.95796875 120.671875 228.7734375 C121.07768384 231.52714035 121.81105121 232.33271658 124 234 C124.99 234.33 125.98 234.66 127 235 C127.66143741 242.10845986 125.99882523 245.59658004 121.8125 251.25 C121.32974609 251.94351563 120.84699219 252.63703125 120.34960938 253.3515625 C114.37857383 261.71902707 108.70142237 264.0100851 98.875 266.5 C97.14503784 266.95391113 97.14503784 266.95391113 95.38012695 267.41699219 C87.59818595 269.42864307 79.78584205 271.23276481 71.87646484 272.66992188 C67.71131487 273.46220069 64.30410307 274.27133061 61 277 C59.9033367 279.49455703 59.9033367 279.49455703 59.4375 282.3125 C58.59248868 286.01306683 57.99980117 288.00028972 55.8125 291.1875 C53.32651399 295.04506449 53.68831234 297.4805289 54 302 C48.37968568 304.93233791 43.34260469 306.03175932 37 305 C35.30225062 303.70647667 33.63260714 302.37482707 32 301 C29.19925655 300.58686351 26.85528702 300.76205941 24 301 C22.81100426 301.97180618 22.81100426 301.97180618 22.8671875 303.75 C22.32289324 315.02868888 22.32289324 315.02868888 26 325 C27.62252492 325.09886353 29.24947273 325.12971167 30.875 325.125 C32.20144531 325.12886719 32.20144531 325.12886719 33.5546875 325.1328125 C36.13906291 325.10048585 36.13906291 325.10048585 39 324 C40.4783226 326.95664519 40.06032783 329.74229737 40 333 C37.625 332.6875 37.625 332.6875 35 332 C34.01 330.515 34.01 330.515 33 329 C29.91634129 328.7497843 29.91634129 328.7497843 27 329 C26.23043864 331.34533951 26.23043864 331.34533951 26 334 C27.37514541 335.7087646 27.37514541 335.7087646 29 337 C29 337.66 29 338.32 29 339 C27.01310269 340.35278115 25.01254782 341.68568305 23 343 C21.10387014 346.79225972 22.11145021 351.55212792 22.2578125 355.71484375 C22 359 22 359 20.53515625 360.7421875 C20.02855469 361.15726562 19.52195312 361.57234375 19 362 C18.2730774 365.10839021 18.2730774 365.10839021 18 368 C17.43152344 368.00257813 16.86304688 368.00515625 16.27734375 368.0078125 C10.69918076 368.28718627 7.44806888 369.40216077 3.44140625 373.34375 C-0.91865976 378.35369035 -1.54447729 382.91626088 -1.3515625 389.37890625 C-0.69681691 394.26039838 1.87664594 396.84455011 5.1875 400.25 C8.94875057 402.59033369 12.66862557 403.28282253 17 404 C17.10864945 406.06132142 17.18588321 408.12431321 17.25 410.1875 C17.29640625 411.33605469 17.3428125 412.48460937 17.390625 413.66796875 C16.91357515 417.73720393 15.88115053 419.13332761 13 422 C10.25485379 424.06782422 7.42539015 425.94550203 4.55859375 427.83984375 C0.87042454 430.95367211 -0.71854792 434.04877935 -1.40625 438.81640625 C-1.4371875 439.72261719 -1.468125 440.62882812 -1.5 441.5625 C-2.04530387 448.7683011 -2.04530387 448.7683011 -5 452 C-7.2976176 453.65063503 -9.62733123 455.18892967 -12.0390625 456.66796875 C-14.13158852 457.85602626 -14.13158852 457.85602626 -15 460 C-16.29356656 467.92514199 -13.61142054 474.06827106 -10.3125 481.09375 C-9 484 -9 484 -9 486 C-16.75 485.125 -16.75 485.125 -19 484 C-20.52148326 483.91627341 -22.04655778 483.89269973 -23.5703125 483.90234375 C-24.91416016 483.90717773 -24.91416016 483.90717773 -26.28515625 483.91210938 C-27.22230469 483.92048828 -28.15945312 483.92886719 -29.125 483.9375 C-30.54232422 483.94426758 -30.54232422 483.94426758 -31.98828125 483.95117188 C-34.32558387 483.96297643 -36.66276061 483.97944241 -39 484 C-39 483.34 -39 482.68 -39 482 C-40.32 481.67 -41.64 481.34 -43 481 C-43.04898438 480.02417969 -43.09796875 479.04835938 -43.1484375 478.04296875 C-43.22320312 476.77066406 -43.29796875 475.49835938 -43.375 474.1875 C-43.47941406 472.29064453 -43.47941406 472.29064453 -43.5859375 470.35546875 C-43.76102939 466.87244766 -43.76102939 466.87244766 -46 464 C-48.20725073 463.63637182 -48.20725073 463.63637182 -50.625 463.8125 C-51.44226563 463.83957031 -52.25953125 463.86664063 -53.1015625 463.89453125 C-53.72804688 463.92933594 -54.35453125 463.96414063 -55 464 C-55.85678194 462.5342909 -56.68416898 461.05139161 -57.5 459.5625 C-57.9640625 458.73878906 -58.428125 457.91507812 -58.90625 457.06640625 C-61.06507661 451.01398163 -60.64617483 445.93667873 -58.1015625 440.0625 C-57.29307389 438.36677388 -56.46720193 436.67923697 -55.625 435 C-51.03439093 425.67532532 -48.92425764 417.17924806 -47.875 406.875 C-47.78935791 406.06039307 -47.70371582 405.24578613 -47.61547852 404.40649414 C-46.97549279 397.84871837 -46.86436831 391.39138454 -47.02734375 384.80859375 C-47 382 -47 382 -46 380 C-45.58297878 377.0842309 -45.58297878 377.0842309 -46 374 C-47.87501931 371.62280307 -47.87501931 371.62280307 -50 370 C-48.02 369.34 -46.04 368.68 -44 368 C-44 366.68 -44 365.36 -44 364 C-44.94875 363.814375 -45.8975 363.62875 -46.875 363.4375 C-50 362 -50 362 -51.25 359.0625 C-51.5319812 357.71462984 -51.77753649 356.35896186 -52 355 C-52.33321634 353.1458123 -52.66655669 351.29164689 -53 349.4375 C-53.16242188 348.49003906 -53.32484375 347.54257812 -53.4921875 346.56640625 C-53.95975734 343.8672255 -53.95975734 343.8672255 -55.125 340.875 C-56.31519726 336.96435185 -56.55214856 333.05991587 -56 329 C-55.34 328.34 -54.68 327.68 -54 327 C-54.18757062 323.17435335 -54.18757062 323.17435335 -56 320 C-56.5447195 312.14963071 -55.9133216 304.10457941 -55.625 296.25 C-55.59422363 295.26821777 -55.56344727 294.28643555 -55.53173828 293.27490234 C-54.96190704 279.30812593 -54.96190704 279.30812593 -50.875 274.5 C-48.72339021 271.63118695 -48.43460181 269.65078446 -48.59375 266.08984375 C-49.04003137 263.79406938 -49.8271129 262.26485248 -51 260.25 C-53.86333747 255.12239212 -53.67905516 249.72459291 -53 244 C-51.95609794 240.91843759 -50.62836137 238.20845532 -48.9375 235.4375 C-46.63306258 231.348982 -45.93215215 228.17379754 -45.5703125 223.55078125 C-45.49683594 222.70193359 -45.42335938 221.85308594 -45.34765625 220.97851562 C-45.20089185 219.22120507 -45.06012356 217.46338194 -44.92578125 215.70507812 C-44.46072243 210.475137 -43.44647025 205.9700525 -41.67236328 201.03442383 C-39.67897855 195.00287882 -39.7706657 188.58032148 -42.5 182.8515625 C-43.74264379 180.83744402 -45.01602783 178.84194783 -46.3203125 176.8671875 C-48.41267 173.2955819 -49.06072532 170.13262173 -49.515625 166.05859375 C-50.10683774 163.5459396 -51.19000723 162.77682536 -53 161 C-54.25167293 153.23962784 -51.605274 148.75847607 -47.53125 142.2109375 C-45.7661529 138.50963695 -45.64666475 136.05354054 -46 132 C-46.33 131.34 -46.66 130.68 -47 130 C-48.53825934 126.92348132 -48.57894471 124.31251871 -48 121 C-45.50826106 113.61033645 -41.89676067 106.70020931 -38.3515625 99.7734375 C-37.16235569 97.33315762 -36.16258801 94.92840283 -35.25 92.375 C-34 89 -34 89 -32 87 C-29.875 86.375 -29.875 86.375 -28 86 C-27.72122718 82.74765041 -27.83294358 81.27397254 -29.5625 78.4375 C-31 76 -31 76 -30.75 74.0625 C-30.5025 73.381875 -30.255 72.70125 -30 72 C-29.02749362 68.27205888 -28.65404049 66.6768773 -30.4375 63.1875 C-32.87325304 58.21856379 -32.66202771 53.48260392 -31.25 48.1875 C-28.70769702 43.73846978 -26.27381148 41.95277291 -21.4375 40.4375 C-20.67308594 40.22996094 -19.90867188 40.02242187 -19.12109375 39.80859375 C-16.01915531 38.62608683 -14.58762149 36.99323399 -12.91699219 34.16943359 C-11.89149935 31.74330757 -11.83176322 30.24187492 -11.98046875 27.62890625 C-12.00947266 26.80712891 -12.03847656 25.98535156 -12.06835938 25.13867188 C-12.1476331 23.42453994 -12.23873789 21.71091332 -12.34179688 19.99804688 C-12.53506593 13.66972419 -12.53506593 13.66972419 -9.65625 10.06640625 C-8.7796875 9.38449219 -7.903125 8.70257813 -7 8 C-4.32820474 5.39033952 -2.07429779 3.11144669 0 0 Z " fill="none" stroke="#8FB3E2" stroke-width="3" transform="translate(150,34)"/>
<path d="M0 0 C3.375 0.3125 3.375 0.3125 7 1 C7.99 2.485 7.99 2.485 9 4 C11.25617887 4.39904465 11.25617887 4.39904465 13.875 4.375 C20.56694542 4.77385767 25.99610828 7.16046308 32 10 C32.26683594 9.38640625 32.53367187 8.7728125 32.80859375 8.140625 C34.67730727 4.78306759 37.5085511 3.30099617 41 2 C46.4080482 1.03081573 51.16552113 1.78769183 55.953125 4.46875 C61.16054758 8.36437911 65.46008224 13.52204502 68.87890625 19.0234375 C71.2442664 22.34278268 73.86623919 24.48389956 77.1875 26.75 C77.79408447 27.17337646 78.40066895 27.59675293 79.02563477 28.03295898 C85.76258979 32.65538905 92.82227308 36.71960106 99.90380859 40.78417969 C103.83514388 43.0644091 107.71083129 45.4384041 111.58618164 47.81225586 C114.59900992 49.63748673 117.61604494 51.33858682 120.7890625 52.87109375 C121.97242188 53.44988281 123.15578125 54.02867188 124.375 54.625 C125.43460938 55.11226562 126.49421875 55.59953125 127.5859375 56.1015625 C130 58 130 58 131.05859375 61.48046875 C131 65 131 65 129.63671875 67.07421875 C128.99347656 67.60660156 128.35023438 68.13898438 127.6875 68.6875 C123.83795124 71.95922603 122.39655351 74.47043645 121.125 79.375 C119.94509052 83.17693054 118.25927908 85.752858 116 89 C117.10859375 89.26554687 118.2171875 89.53109375 119.359375 89.8046875 C120.82297811 90.16120621 122.28651641 90.51799103 123.75 90.875 C124.47960937 91.04902344 125.20921875 91.22304687 125.9609375 91.40234375 C129.58244916 92.29126025 132.66745868 93.30679194 136 95 C140.8528447 94.81687378 143.97264511 93.61447873 148.04296875 91.0234375 C150.36175459 89.81081896 152.57748694 89.33121039 155.125 88.75 C158.80839575 87.69360881 160.75989247 86.75325423 162.9375 83.5625 C165.27040821 79.17402232 166.22692541 74.4949742 167.12890625 69.63671875 C168.16717915 66.49396444 169.11493567 65.55920756 172 64 C175.43331008 63.93757618 177.86742096 64.00356218 180.52734375 66.34375 C184.70596903 71.28542859 185.18196029 74.6151288 185.1875 80.875 C185.19974609 81.59558594 185.21199219 82.31617187 185.22460938 83.05859375 C185.24470728 90.33403399 185.24470728 90.33403399 183 93 C180.50691186 94.41255578 178.09805002 95.63294088 175.5 96.8125 C165.22696108 101.72943168 157.18609889 107.06077071 150 116 C146.75105176 119.90384095 143.41938535 123.63466659 139.7265625 127.125 C125.54173507 140.60269404 118.22492661 153.65403097 117.4375 173.5 C117.40765015 174.82862061 117.40765015 174.82862061 117.37719727 176.18408203 C117.35455811 177.02052246 117.33191895 177.85696289 117.30859375 178.71875 C117.29626709 179.47091797 117.28394043 180.22308594 117.27124023 180.99804688 C117 183 117 183 115 186 C114.72680667 188.45029068 114.55120722 190.91215009 114.4375 193.375 C114.22904761 197.68868818 113.98364297 201.78903256 113 206 C113.66386719 206.44730469 114.32773437 206.89460937 115.01171875 207.35546875 C127.48358051 215.89459746 127.48358051 215.89459746 128.8125 221.3125 C128.874375 222.199375 128.93625 223.08625 129 224 C128.01 224.66 127.02 225.32 126 226 C125.74984127 229.58357241 125.74984127 229.58357241 126 233 C126.969375 233.28875 127.93875 233.5775 128.9375 233.875 C132 235 132 235 133 237 C134.21178702 245.17956237 130.47546674 250.36778453 126 257 C125.37480469 257.94101562 124.74960937 258.88203125 124.10546875 259.8515625 C117.24911836 269.31919095 107.83329321 271.28481251 96.875 274.0625 C95.87887695 274.31999023 94.88275391 274.57748047 93.85644531 274.84277344 C86.61080714 276.68156679 79.36190276 278.16550121 71.984375 279.359375 C68.83574494 279.84393071 68.83574494 279.84393071 66 282 C65.12862751 284.21111944 65.12862751 284.21111944 64.5625 286.75 C63.63244943 290.20306011 62.90430938 292.13670088 60.8125 295.125 C58.90437337 298.15168361 58.82243786 298.81381926 59 302.1875 C59 306 59 306 57.3125 307.875 C51.07135897 310.91123077 45.94068649 311.85638312 39 311 C36.41780611 309.9102668 34.36391885 308.54378374 32 307 C30.68 307 29.36 307 28 307 C28.14049518 308.47968324 28.28754826 309.95874516 28.4375 311.4375 C28.51871094 312.26121094 28.59992188 313.08492188 28.68359375 313.93359375 C28.78930815 315.98662025 28.78930815 315.98662025 30 317 C30.14115161 319.67058851 30.04247107 322.32432238 30 325 C34.47427924 325.08948558 38.60563789 324.85743651 43 324 C45.16721782 327.25082673 45.27221018 328.29232153 45.25 332.0625 C45.25773437 333.37927734 45.25773437 333.37927734 45.265625 334.72265625 C45 337 45 337 43 339 C39.375 339.125 39.375 339.125 36 339 C35.92007813 339.60972656 35.84015625 340.21945312 35.7578125 340.84765625 C34.75310881 343.70122188 33.50283719 344.04117536 30.875 345.4375 C28.5857952 346.86312622 28.5857952 346.86312622 27 349 C26.81652706 352.46851216 27.2326486 355.47267476 27.890625 358.87890625 C28.03302549 362.94240584 26.69222672 364.07970251 24 367 C23.27648573 368.98014432 22.59734611 370.97821315 22 373 C20.40646758 374.59353242 18.4433477 374.42554028 16.25 374.75 C10.52946563 375.84507372 8.07227396 378.13828834 4.6875 382.8125 C3.38187882 386.9667492 3.19191827 390.95790183 4.79296875 395.00390625 C6.52664348 398.18563114 7.96416916 399.97611278 11 402 C13.5620281 402.59794497 16.12715603 403.01063359 18.72265625 403.4375 C21 404 21 404 23 406 C23.67853529 411.71232037 23.83573291 417.16138759 21.4375 422.4375 C18.02017844 426.03006882 14.42877814 429.39003544 10.28515625 432.13671875 C6.70190272 434.63360691 5.56485254 436.67507045 4.75 440.8125 C4.48781135 442.53986055 4.23747532 444.2690688 4 446 C3.040063 451.21626143 1.90092505 455.20743398 -2 459 C-3.96752828 460.06246527 -5.96587579 461.07137808 -8 462 C-10.27180354 463.87668319 -10.27180354 463.87668319 -10.4375 466.875 C-10.27457513 473.36484067 -6.64641035 479.39847736 -4 485.1875 C-2.52396411 488.48019545 -2 490.28289863 -2 494 C-3.73030291 493.71515154 -5.45920714 493.42180062 -7.1875 493.125 C-8.63189453 492.88136719 -8.63189453 492.88136719 -10.10546875 492.6328125 C-13 492 -13 492 -15.57421875 490.94140625 C-22.61087503 488.21059439 -31.67346205 490.21998836 -39 491 C-39.495 489.02 -39.495 489.02 -40 487 C-40.639375 486.855625 -41.27875 486.71125 -41.9375 486.5625 C-44 486 -44 486 -45 485 C-45.23653523 482.47403741 -45.42173692 479.96892793 -45.5625 477.4375 C-45.60568359 476.72658203 -45.64886719 476.01566406 -45.69335938 475.28320312 C-45.79971777 473.52238088 -45.90038846 471.7612168 -46 470 C-48.64 470.33 -51.28 470.66 -54 471 C-54.98219627 469.23084525 -55.96065359 467.45961431 -56.9375 465.6875 C-57.48277344 464.70136719 -58.02804688 463.71523438 -58.58984375 462.69921875 C-61.36576278 457.38575601 -61.99898168 452.88836382 -61 447 C-59.59522935 443.14567209 -57.81798531 439.46450524 -56.07226562 435.75561523 C-49.36175507 421.41503888 -48.90351689 406.98457287 -48.39453125 391.39453125 C-48.35714844 390.36972656 -48.31976563 389.34492188 -48.28125 388.2890625 C-48.25095703 387.36818848 -48.22066406 386.44731445 -48.18945312 385.49853516 C-48.01609662 383.2122846 -47.63497244 381.19733885 -47 379 C-48.65 377.68 -50.3 376.36 -52 375 C-51.625 372.5625 -51.625 372.5625 -51 370 C-50.34 369.67 -49.68 369.34 -49 369 C-49.639375 368.236875 -50.27875 367.47375 -50.9375 366.6875 C-53.4510632 362.93905035 -53.41771319 359.48406998 -53.65234375 355.07421875 C-54.04566195 351.59622519 -54.96568605 348.57101505 -56.0625 345.25 C-57.59266041 340.57049126 -58.65311495 336.8983621 -58 332 C-57.34 331.34 -56.68 330.68 -56 330 C-56.2786166 327.99164647 -56.62454501 325.99252219 -57 324 C-57.10267772 321.33728204 -57.16379309 318.70139762 -57.16796875 316.0390625 C-57.17129715 315.289664 -57.17462555 314.5402655 -57.17805481 313.76815796 C-57.18309462 312.18984588 -57.18546405 310.61152324 -57.18530273 309.03320312 C-57.1874871 306.63914145 -57.2056681 304.24554274 -57.22460938 301.8515625 C-57.22754449 300.30989739 -57.22952849 298.76823012 -57.23046875 297.2265625 C-57.23765427 296.52109283 -57.24483978 295.81562317 -57.25224304 295.08877563 C-57.21671274 287.22710039 -55.76198829 279.76198829 -50 274 C-49.49680136 269.97441091 -50.13951418 267.54022791 -52 264.0625 C-54.99691304 257.80204464 -54.85154978 250.78171175 -54 244 C-52.72265625 241.546875 -52.72265625 241.546875 -51 239 C-47.60360799 233.34735031 -46.48781233 228.92981467 -46.5 222.375 C-46.32473237 215.03121029 -45.06880426 209.06518783 -42.87890625 202.04296875 C-41.35481934 196.7662412 -40.64161871 192.56353054 -43.28125 187.58203125 C-44.34950508 185.89324564 -45.43842275 184.21736587 -46.546875 182.5546875 C-48.47755247 179.16043195 -48.93224065 175.98460981 -49.5 172.1640625 C-49.87807016 169.75390917 -49.87807016 169.75390917 -52.125 167.5625 C-54.72282441 164.01213997 -54.61100193 161.24621706 -54.46484375 156.92578125 C-53.50655134 150.89417608 -50.33787748 146.00681622 -47 141 C-47.31627097 137.45776514 -47.87548091 134.37355726 -49 131 C-50.10750863 120.8478376 -44.73752179 112.28133071 -40.1796875 103.51953125 C-38.89397671 100.77355953 -37.98751915 98.01090684 -37.0625 95.125 C-35.83581171 91.55599334 -34.93113961 89.42084312 -31.75 87.3125 C-30.8425 86.879375 -29.935 86.44625 -29 86 C-29.495 85.13375 -29.99 84.2675 -30.5 83.375 C-32.42981217 79.03292262 -32.46655679 75.95953852 -31.375 71.375 C-30.7554761 69.02718142 -30.7554761 69.02718142 -31.94921875 67.27734375 C-34.24881753 62.29345495 -33.59014994 56.34176955 -33 51 C-31.34992149 46.70837949 -29.00328616 44.61069592 -25.125 42.25 C-22.86092895 41.34437158 -20.56334444 40.52111481 -18.25 39.75 C-14.74074933 38.3085756 -14.74074933 38.3085756 -13.765625 34.9140625 C-13.04461737 31.22809495 -13.02614874 28.4752776 -13.33276367 24.79589844 C-14.05207417 15.45851317 -14.05207417 15.45851317 -10.88671875 11.0703125 C-8.1875 8.75 -8.1875 8.75 -5.48046875 6.859375 C-2.78345543 4.83767683 -1.53988675 2.96722365 0 0 Z M2 3 C1.62875 3.70125 1.2575 4.4025 0.875 5.125 C-1.35840594 8.54955578 -3.8346764 10.1269121 -7.2578125 12.27734375 C-9.73766808 14.72939826 -9.74132919 16.55516175 -10 20 C-9.95549546 23.78693194 -9.8098655 27.56028708 -9.64453125 31.34375 C-10.06313954 35.64943527 -11.30390494 37.66807996 -14 41 C-16.67104384 42.96813757 -18.8879711 43.96570544 -22.0625 44.9375 C-25.34354927 46.1242625 -26.84272908 47.28343662 -29 50 C-31.23446966 57.04375867 -30.29654639 62.55023533 -27 69 C-27.23361622 71.9202028 -27.75204411 74.31812131 -28.75 77.0625 C-29.12608177 79.97713375 -27.49710475 81.5447482 -26 84 C-25.8125 86.8125 -25.8125 86.8125 -26 89 C-26.78375 89.28875 -27.5675 89.5775 -28.375 89.875 C-31.09671632 90.84912254 -31.09671632 90.84912254 -33 93 C-33.77885274 95.06527243 -34.49868087 97.15298068 -35.1875 99.25 C-37.43134756 105.86449499 -40.32290927 111.94810627 -43.546875 118.13671875 C-45.83975782 122.65468409 -46.26570837 125.95154089 -46 131 C-45.67 131.66 -45.34 132.32 -45 133 C-43.45315497 136.09369007 -43.74486868 138.57698806 -44 142 C-45.53125 145.2109375 -45.53125 145.2109375 -47.5 148.375 C-50.4876002 153.64723564 -52.66128322 157.93438451 -51 164 C-49.69864875 165.69175663 -48.36244796 167.35704805 -47 169 C-46.5 171.171875 -46.5 171.171875 -46.125 173.6875 C-45.46463121 177.83314851 -44.26998828 180.37669905 -41.875 183.8125 C-38.1118214 189.66428872 -37.98730771 195.22516705 -39 202 C-39.47051818 203.43437374 -39.96464428 204.86112497 -40.4765625 206.28125 C-42.19328437 211.1564939 -42.60228252 215.80768664 -42.9375 220.9375 C-44.27404425 237.27404425 -44.27404425 237.27404425 -50 243 C-51.88229464 248.48901404 -52.22487892 255.87629132 -50.10546875 261.28125 C-49.38139839 262.57076047 -48.64987918 263.85612314 -47.91015625 265.13671875 C-46.19006303 268.65811131 -46.44483169 271.11382182 -47 275 C-48.12681912 276.90351943 -49.33801101 278.5133229 -50.80859375 280.1640625 C-54.1644666 285.33540755 -53.32834832 293.14037272 -53.5625 299.125 C-53.62401245 300.66172363 -53.62401245 300.66172363 -53.68676758 302.22949219 C-53.79886279 305.15278667 -53.90222441 308.07619459 -54 311 C-54.02481445 311.72348633 -54.04962891 312.44697266 -54.07519531 313.19238281 C-54.53355456 319.97524226 -54.53355456 319.97524226 -52 326 C-52.54054054 330.54054054 -52.54054054 330.54054054 -54 332 C-54.65383082 337.63300395 -53.77142567 342.151894 -51.79296875 347.390625 C-50.43941646 351.84467883 -50.0499595 356.44464329 -49.52734375 361.05859375 C-49.26898664 364.11183134 -49.26898664 364.11183134 -47 366 C-44.42938689 366.64767793 -44.42938689 366.64767793 -42 367 C-42.33 368.65 -42.66 370.3 -43 372 C-44.65 372.33 -46.3 372.66 -48 373 C-47.34 373.53625 -46.68 374.0725 -46 374.625 C-44 377 -44 377 -43.6875 380.125 C-44 383 -44 383 -45 385 C-45.02089128 387.14583277 -44.99061235 389.29222291 -44.9375 391.4375 C-44.77120523 405.96415298 -45.83913086 421.03230957 -51.97265625 434.34765625 C-52.5147876 435.52702759 -52.5147876 435.52702759 -53.06787109 436.73022461 C-53.79511268 438.28572237 -54.54061999 439.83285696 -55.30712891 441.36938477 C-57.82766622 446.66110435 -58.83182976 451.14291103 -58 457 C-57.01216721 460.04340372 -57.01216721 460.04340372 -55.5 462.5625 C-55.0359375 463.40941406 -54.571875 464.25632812 -54.09375 465.12890625 C-53.7328125 465.74636719 -53.371875 466.36382812 -53 467 C-52.37351562 466.96519531 -51.74703125 466.93039062 -51.1015625 466.89453125 C-50.28429687 466.86746094 -49.46703125 466.84039062 -48.625 466.8125 C-47.81289062 466.77769531 -47.00078125 466.74289062 -46.1640625 466.70703125 C-45.44992188 466.80371094 -44.73578125 466.90039062 -44 467 C-41.57520264 470.63719605 -41.61337423 472.85703482 -41.375 477.1875 C-41.26285156 479.09595703 -41.26285156 479.09595703 -41.1484375 481.04296875 C-41.09945312 482.01878906 -41.05046875 482.99460937 -41 484 C-39.68 484.33 -38.36 484.66 -37 485 C-37 485.66 -37 486.32 -37 487 C-36.42032471 486.98952637 -35.84064941 486.97905273 -35.2434082 486.96826172 C-32.59981679 486.92651385 -29.95629495 486.90061462 -27.3125 486.875 C-26.40048828 486.85824219 -25.48847656 486.84148437 -24.54882812 486.82421875 C-19.86260838 486.79013715 -16.2853973 486.89026594 -12 489 C-9.29113059 489.16798262 -9.29113059 489.16798262 -7 489 C-8.36737131 484.72332804 -9.70478445 480.60136502 -11.6875 476.5625 C-13.39044067 471.94023246 -13.88449232 467.86884093 -13 463 C-10.70609116 459.91960813 -8.68388923 458.39079384 -5.375 456.5 C-2.31947628 454.57019554 -1.39938748 453.35852994 0 450 C0.16097288 448.23207369 0.28182417 446.4602927 0.375 444.6875 C0.80429346 438.96869788 2.03942885 435.20971771 6 431 C8.78016558 428.77747225 11.61351136 426.73685913 14.57421875 424.76171875 C17.20906062 423.06262803 17.20906062 423.06262803 19 420 C19.24246783 416.79620876 19.24246783 416.79620876 19.125 413.3125 C19.10695313 412.13300781 19.08890625 410.95351563 19.0703125 409.73828125 C19.04710937 408.83464844 19.02390625 407.93101562 19 407 C18.27554688 406.86464844 17.55109375 406.72929687 16.8046875 406.58984375 C10.56238673 405.19989145 6.88383717 403.80920313 3.0234375 398.62109375 C0.12403412 394.02852734 0.36395938 389.29557419 1 384 C2.9951385 378.9914573 6.29285127 374.67451633 11 372 C13.99595705 371.40889212 16.9515057 371.132832 20 371 C20.28875 369.88625 20.5775 368.7725 20.875 367.625 C22 364 22 364 24 362 C24.01439574 359.72835235 23.93837933 357.45570296 23.8125 355.1875 C23.6974883 348.58447543 23.6974883 348.58447543 25.03515625 346 C26.81941013 344.25215946 28.77545725 343.11227138 31 342 C30.690625 341.443125 30.38125 340.88625 30.0625 340.3125 C28.9336998 337.85569956 28.3615143 335.67520583 28 333 C29 332 29 332 31.875 331.6875 C32.90625 331.790625 33.9375 331.89375 35 332 C36.625 334 36.625 334 38 336 C39.32 336 40.64 336 42 336 C42.16677282 332.58343976 42.16677282 332.58343976 42 329 C41.34 328.34 40.68 327.68 40 327 C39.34 327.33 38.68 327.66 38 328 C36.33654418 328.12082534 34.66779409 328.1753794 33 328.1875 C32.113125 328.20167969 31.22625 328.21585937 30.3125 328.23046875 C28 328 28 328 26 326 C25.83984375 323.94140625 25.83984375 323.94140625 25.9375 321.5625 C26.05115028 318.56312088 25.96909818 316.90729453 25 314 C24.90817058 312.46050671 24.86997648 310.91722145 24.875 309.375 C24.87113281 308.18003906 24.87113281 308.18003906 24.8671875 306.9609375 C25 305 25 305 26 304 C33.27962085 303.39336493 33.27962085 303.39336493 36.375 306 C40.35621865 309.03330945 44.16113308 308.65369786 49 308 C51.54193846 307.21127796 53.62661158 306.23828961 56 305 C55.896875 303.845 55.79375 302.69 55.6875 301.5 C55.66379385 297.00373424 57.23552113 294.67304834 59.7734375 291.0859375 C61.49054507 288.16576093 61.87233658 285.31452863 62.25 281.98046875 C63.36956954 279.02410544 65.24035107 278.43775191 68 277 C70.72875977 276.20385742 70.72875977 276.20385742 73.69140625 275.60546875 C74.79202393 275.37545166 75.8926416 275.14543457 77.02661133 274.90844727 C78.77687622 274.55157837 78.77687622 274.55157837 80.5625 274.1875 C89.19588655 272.32965325 97.80636072 270.44389511 106.3125 268.0625 C107.11051025 267.85842529 107.90852051 267.65435059 108.73071289 267.4440918 C114.62028196 265.72505352 117.46738089 262.92375699 121 258 C121.77085937 257.00097656 122.54171875 256.00195312 123.3359375 254.97265625 C127.46709302 249.07665844 130.11940841 245.27615464 129 238 C128.195625 237.71125 127.39125 237.4225 126.5625 237.125 C124 236 124 236 123 234 C122.87994547 232.50350638 122.82468549 231.00125207 122.8125 229.5 C122.79832031 228.7059375 122.78414062 227.911875 122.76953125 227.09375 C123 225 123 225 125 223 C125.29467517 220.60317507 125.29467517 220.60317507 124 218 C120.54158988 214.80446191 116.65269577 212.36788307 112.5625 210.0625 C110 208 110 208 109 204.375 C109 201 109 201 111 199 C111.02106594 195.63576801 111.02106594 195.63576801 110.625 191.875 C110.51414062 190.59367188 110.40328125 189.31234375 110.2890625 187.9921875 C110.14597656 186.51105469 110.14597656 186.51105469 110 185 C110.99 184.67 111.98 184.34 113 184 C113.03963867 183.4016333 113.07927734 182.8032666 113.12011719 182.18676758 C114.95755783 155.75959985 121.84486869 139.60080275 141 121 C144.02713185 118.00972821 146.98731169 114.99468378 149.8125 111.8125 C150.41707031 111.13832031 151.02164063 110.46414062 151.64453125 109.76953125 C153.20270013 108.10688352 153.20270013 108.10688352 153 106 C153.56847656 105.73703125 154.13695312 105.4740625 154.72265625 105.203125 C157.16236322 103.91422321 159.22945005 102.40324482 161.4375 100.75 C166.44584661 97.17474214 171.67255263 94.68929043 177.3125 92.26171875 C180.07682553 91.14955839 180.07682553 91.14955839 182 89 C182.39853091 85.62088361 182.39853091 85.62088361 182.375 81.75 C182.40335938 80.44546875 182.43171875 79.1409375 182.4609375 77.796875 C181.93373741 73.45417596 180.82171839 71.30892156 178 68 C174.91440699 67.33278464 174.91440699 67.33278464 172 68 C169.47539076 70.52460924 169.35866165 72.28021196 168.625 75.75 C167.11158192 82.04461448 165.34909766 86.07801101 160.25 90.25 C157.06925791 91.96270728 154.49277624 92.7008928 151.0078125 93.4296875 C148.85428061 94.04139111 147.31625632 94.92023698 145.4375 96.125 C141.38674712 98.33450157 139.55398177 98.61748905 135 98 C133.42404254 97.38773778 131.86225255 96.73835055 130.3125 96.0625 C124.63278158 93.58582771 119.13954164 93.21098081 113 93 C112.328125 91.26171875 112.328125 91.26171875 112 89 C113.109375 86.95703125 113.109375 86.95703125 114.75 84.8125 C117.00978524 81.65919049 118.49753411 78.98049456 119.5625 75.25 C120.78787629 71.07059159 122.63619692 68.84629492 126 66 C126.99 65.01 126.99 65.01 128 64 C128.00062784 61.96742025 128.00062784 61.96742025 127 60 C125.14612976 58.53814144 125.14612976 58.53814144 122.7578125 57.40625 C121.86553955 56.93920654 120.9732666 56.47216309 120.05395508 55.9909668 C119.0873999 55.49894775 118.12084473 55.00692871 117.125 54.5 C107.08435792 49.21721866 97.50324165 43.45627842 87.99169922 37.28076172 C85.31367888 35.55866137 82.59104535 33.91127046 79.875 32.25 C71.41350148 26.80953109 65.57651988 20.66359034 59.8515625 12.4296875 C56.80963508 8.43795995 53.76974682 6.58991561 49 5 C43.25679849 4.45818854 40.48950695 5.40839444 36 9 C34.63113049 10.29682374 33.2830709 11.61823134 32 13 C27 11 27 11 24.765625 9.94921875 C20.35949404 8.43694499 15.90124322 8.70087104 11.27734375 8.63671875 C7.16208904 7.83721158 6.31651723 6.36510239 4 3 C3.34 3 2.68 3 2 3 Z " fill="#1F1F1F" transform="translate(148,31)"/>
<path d="M0 0 C3.375 0.3125 3.375 0.3125 7 1 C7.66 1.99 8.32 2.98 9 4 C11.25617887 4.39904465 11.25617887 4.39904465 13.875 4.375 C20.56694542 4.77385767 25.99610828 7.16046308 32 10 C32.26683594 9.38640625 32.53367187 8.7728125 32.80859375 8.140625 C34.67730727 4.78306759 37.5085511 3.30099617 41 2 C46.4080482 1.03081573 51.16552113 1.78769183 55.953125 4.46875 C61.16054758 8.36437911 65.46008224 13.52204502 68.87890625 19.0234375 C71.2442664 22.34278268 73.86623919 24.48389956 77.1875 26.75 C77.79408447 27.17337646 78.40066895 27.59675293 79.02563477 28.03295898 C85.76258979 32.65538905 92.82227308 36.71960106 99.90380859 40.78417969 C103.83514388 43.0644091 107.71083129 45.4384041 111.58618164 47.81225586 C114.59900992 49.63748673 117.61604494 51.33858682 120.7890625 52.87109375 C121.97242188 53.44988281 123.15578125 54.02867188 124.375 54.625 C125.43460938 55.11226562 126.49421875 55.59953125 127.5859375 56.1015625 C130 58 130 58 131.05859375 61.48046875 C131 65 131 65 129.63671875 67.07421875 C128.99347656 67.60660156 128.35023438 68.13898438 127.6875 68.6875 C123.83795124 71.95922603 122.39655351 74.47043645 121.125 79.375 C119.94509052 83.17693054 118.25927908 85.752858 116 89 C117.10859375 89.26554687 118.2171875 89.53109375 119.359375 89.8046875 C120.82297811 90.16120621 122.28651641 90.51799103 123.75 90.875 C124.47960937 91.04902344 125.20921875 91.22304687 125.9609375 91.40234375 C129.58244916 92.29126025 132.66745868 93.30679194 136 95 C140.8528447 94.81687378 143.97264511 93.61447873 148.04296875 91.0234375 C150.36175459 89.81081896 152.57748694 89.33121039 155.125 88.75 C158.80839575 87.69360881 160.75989247 86.75325423 162.9375 83.5625 C165.27040821 79.17402232 166.22692541 74.4949742 167.12890625 69.63671875 C168.16717915 66.49396444 169.11493567 65.55920756 172 64 C175.43331008 63.93757618 177.86742096 64.00356218 180.52734375 66.34375 C184.70596903 71.28542859 185.18196029 74.6151288 185.1875 80.875 C185.19974609 81.59558594 185.21199219 82.31617187 185.22460938 83.05859375 C185.24470728 90.33403399 185.24470728 90.33403399 183 93 C180.50691186 94.41255578 178.09805002 95.63294088 175.5 96.8125 C165.22696108 101.72943168 157.18609889 107.06077071 150 116 C146.75105176 119.90384095 143.41938535 123.63466659 139.7265625 127.125 C122.30034537 143.68249596 117.67226716 159.33155968 117 183 C116.01 183 115.02 183 114 183 C113.21352133 161.67130349 116.43892407 145.65416014 131.35693359 129.53369141 C132.82669643 127.98567165 134.31343042 126.45713832 135.8125 124.9375 C136.29283691 124.44781738 136.77317383 123.95813477 137.26806641 123.45361328 C140.75382933 120 140.75382933 120 143 120 C143.38865234 119.15695313 143.38865234 119.15695313 143.78515625 118.296875 C150.21925491 106.13208397 161.14656615 99.02809759 173.2734375 93.32421875 C174.17320312 92.88722656 175.07296875 92.45023437 176 92 C176.93070313 91.60167969 177.86140625 91.20335938 178.8203125 90.79296875 C181.36309802 89.09810445 181.36309802 89.09810445 181.59375 85.6015625 C181.54734375 83.63316406 181.54734375 83.63316406 181.5 81.625 C181.48453125 79.66433594 181.48453125 79.66433594 181.46875 77.6640625 C180.99006545 73.92234495 180.37442444 71.90825289 178 69 C174.87364791 68.58253392 174.87364791 68.58253392 172 69 C171.62875 70.1446875 171.62875 70.1446875 171.25 71.3125 C170.8375 72.529375 170.425 73.74625 170 75 C169.74347656 75.87011719 169.48695313 76.74023438 169.22265625 77.63671875 C167.16876209 84.09811112 165.0872375 88.64391849 159 92 C156.49384424 92.91059679 154.0027431 93.62430696 151.41796875 94.27734375 C149.06073085 94.98184942 147.36846442 95.86151845 145.3125 97.1875 C141.33863097 99.36188117 139.47701046 99.60705227 135 99 C132.55720047 98.05096813 130.17010745 97.00016225 127.76953125 95.94921875 C123.70639981 94.55663632 119.73725984 94.41645458 115.46875 94.2734375 C113 94 113 94 111 92 C111.36984204 88.90735533 112.62715067 86.83893675 114.375 84.3125 C116.29272318 81.36722887 117.5478296 78.67604827 118.5625 75.3125 C120.14689174 70.12070786 122.45165827 67.03222782 127 64 C126.80379692 62.06636677 126.80379692 62.06636677 126 60 C124.24291005 58.6330822 124.24291005 58.6330822 121.9765625 57.625 C120.70594971 56.99223145 120.70594971 56.99223145 119.40966797 56.34667969 C118.03125732 55.68007324 118.03125732 55.68007324 116.625 55 C106.67266246 49.99911657 97.3252207 44.37409556 88.00341797 38.29248047 C85.34717366 36.57883712 82.63920809 34.95322876 79.9375 33.3125 C72.25344865 28.37615122 66.03408395 22.74007709 60.875 15.1875 C57.55423189 10.41681905 54.68493049 7.52131943 49 6 C44.62915706 5.39712511 42.68882934 5.62181919 38.8125 7.75 C36.35708346 9.71433323 34.13770024 11.69786128 32 14 C27 12 27 12 24.765625 10.94921875 C20.35949404 9.43694499 15.90124322 9.70087104 11.27734375 9.63671875 C7.16208904 8.83721158 6.31651723 7.36510239 4 4 C3.34 4 2.68 4 2 4 C1.608125 4.721875 1.21625 5.44375 0.8125 6.1875 C-1.24800222 9.38483102 -3.23061456 10.64028807 -6.4765625 12.49609375 C-8.79652836 14.78631646 -8.73138497 16.79553615 -9 20 C-8.95549546 23.78693194 -8.8098655 27.56028708 -8.64453125 31.34375 C-9.06438808 35.66227741 -10.29031276 37.66049357 -13 41 C-16.8531403 44.01550111 -20.40592988 45.46864329 -25 47 C-27.7372069 49.07650178 -28.32910563 50.69896221 -29 54 C-29.56867963 60.01488066 -28.76345079 63.59324846 -26 69 C-26.23361622 71.9202028 -26.75204411 74.31812131 -27.75 77.0625 C-28.12608177 79.97713375 -26.49710475 81.5447482 -25 84 C-24.8125 86.8125 -24.8125 86.8125 -25 89 C-25.886875 89.2475 -26.77375 89.495 -27.6875 89.75 C-32.04635466 91.96498908 -32.93684586 95.95515709 -34.5703125 100.31640625 C-36.26102099 104.6725213 -38.23018833 108.85149325 -40.25 113.0625 C-43.23677775 119.29595278 -45.37098692 123.9512485 -45 131 C-44.67 131.66 -44.34 132.32 -44 133 C-42.45315497 136.09369007 -42.74486868 138.57698806 -43 142 C-44.53125 145.2109375 -44.53125 145.2109375 -46.5 148.375 C-49.4876002 153.64723564 -51.66128322 157.93438451 -50 164 C-48.69864875 165.69175663 -47.36244796 167.35704805 -46 169 C-45.5 171.171875 -45.5 171.171875 -45.125 173.6875 C-44.46463121 177.83314851 -43.26998828 180.37669905 -40.875 183.8125 C-37.1118214 189.66428872 -36.98730771 195.22516705 -38 202 C-38.47051818 203.43437374 -38.96464428 204.86112497 -39.4765625 206.28125 C-41.19328437 211.1564939 -41.60228252 215.80768664 -41.9375 220.9375 C-43.27404425 237.27404425 -43.27404425 237.27404425 -49 243 C-50.88229464 248.48901404 -51.22487892 255.87629132 -49.10546875 261.28125 C-48.38368195 262.56669364 -47.64597652 263.8433633 -46.890625 265.109375 C-45.34127532 268.39834537 -45.74487259 271.42821627 -46 275 C-46.66 275.33 -47.32 275.66 -48 276 C-48.18175781 275.35933594 -48.36351563 274.71867187 -48.55078125 274.05859375 C-50.22637026 268.28467552 -50.22637026 268.28467552 -52.6875 262.8125 C-55.20590726 257.25601414 -54.66922678 249.91806424 -54 244 C-52.7265625 241.5390625 -52.7265625 241.5390625 -51 239 C-47.60253392 233.34840115 -46.48781372 228.92906727 -46.5 222.375 C-46.32473237 215.03121029 -45.06880426 209.06518783 -42.87890625 202.04296875 C-41.35481934 196.7662412 -40.64161871 192.56353054 -43.28125 187.58203125 C-44.34950508 185.89324564 -45.43842275 184.21736587 -46.546875 182.5546875 C-48.47755247 179.16043195 -48.93224065 175.98460981 -49.5 172.1640625 C-49.87807016 169.75390917 -49.87807016 169.75390917 -52.125 167.5625 C-54.72282441 164.01213997 -54.61100193 161.24621706 -54.46484375 156.92578125 C-53.50655134 150.89417608 -50.33787748 146.00681622 -47 141 C-47.31627097 137.45776514 -47.87548091 134.37355726 -49 131 C-50.10750863 120.8478376 -44.73752179 112.28133071 -40.1796875 103.51953125 C-38.89397671 100.77355953 -37.98751915 98.01090684 -37.0625 95.125 C-35.83581171 91.55599334 -34.93113961 89.42084312 -31.75 87.3125 C-30.8425 86.879375 -29.935 86.44625 -29 86 C-29.495 85.13375 -29.99 84.2675 -30.5 83.375 C-32.42981217 79.03292262 -32.46655679 75.95953852 -31.375 71.375 C-30.7554761 69.02718142 -30.7554761 69.02718142 -31.94921875 67.27734375 C-34.24881753 62.29345495 -33.59014994 56.34176955 -33 51 C-31.34992149 46.70837949 -29.00328616 44.61069592 -25.125 42.25 C-22.86092895 41.34437158 -20.56334444 40.52111481 -18.25 39.75 C-14.74074933 38.3085756 -14.74074933 38.3085756 -13.765625 34.9140625 C-13.04461737 31.22809495 -13.02614874 28.4752776 -13.33276367 24.79589844 C-14.05207417 15.45851317 -14.05207417 15.45851317 -10.88671875 11.0703125 C-8.1875 8.75 -8.1875 8.75 -5.48046875 6.859375 C-2.78345543 4.83767683 -1.53988675 2.96722365 0 0 Z " fill="#191919" transform="translate(148,31)"/>
<path d="M0 0 C2.46800047 1.15173355 4.04783565 2.04783565 6 4 C6.28875 5.0725 6.5775 6.145 6.875 7.25 C8.05599818 11.18666061 9.56885731 13.71080694 12 17 C12.5775 17.845625 13.155 18.69125 13.75 19.5625 C16.3259271 22.35308769 18.99022957 23.96305828 22.29296875 25.7890625 C24 27 24 27 25 30 C30.94 30.99 30.94 30.99 37 32 C37 33.98 37 35.96 37 38 C36.34 38.66 35.68 39.32 35 40 C32.66666667 40 30.33333333 40 28 40 C27.01 40.66 26.02 41.32 25 42 C19.44444444 41.44444444 19.44444444 41.44444444 18 40 C15.30764224 39.76321284 12.63501844 39.57801975 9.9375 39.4375 C9.17888672 39.39431641 8.42027344 39.35113281 7.63867188 39.30664062 C5.75934562 39.20026367 3.87969756 39.09960066 2 39 C-0.34529761 26.16984247 -0.14476874 12.99701557 0 0 Z " fill="#212121" transform="translate(142,527)"/>
<path d="M0 0 C0.66 0 1.32 0 2 0 C2.33 0.99 2.66 1.98 3 3 C2.071875 4.1446875 2.071875 4.1446875 1.125 5.3125 C-3.15781644 10.72900314 -2.30173775 18.46023943 -2.5625 25.125 C-2.6035083 26.14948242 -2.6445166 27.17396484 -2.68676758 28.22949219 C-2.79886279 31.15278667 -2.90222441 34.07619459 -3 37 C-3.02481445 37.72348633 -3.04962891 38.44697266 -3.07519531 39.19238281 C-3.53355456 45.97524226 -3.53355456 45.97524226 -1 52 C-1.54054054 56.54054054 -1.54054054 56.54054054 -3 58 C-3.65350944 63.6302352 -2.76767508 68.1439768 -0.80078125 73.3828125 C0.84593873 78.76477537 1.32612797 84.42668189 2 90 C3.98 90.66 5.96 91.32 8 92 C4.91190305 93.76462683 3.76687864 94 0 94 C-3.53696753 90.20103488 -3.31236653 86.0130167 -3.6171875 81.109375 C-4.04541337 77.63113222 -4.96656968 74.57611022 -6.0625 71.25 C-7.59266041 66.57049126 -8.65311495 62.8983621 -8 58 C-7.34 57.34 -6.68 56.68 -6 56 C-6.2786166 53.99164647 -6.62454501 51.99252219 -7 50 C-7.10267772 47.33728204 -7.16379309 44.70139762 -7.16796875 42.0390625 C-7.17129715 41.289664 -7.17462555 40.5402655 -7.17805481 39.76815796 C-7.18309462 38.18984588 -7.18546405 36.61152324 -7.18530273 35.03320312 C-7.1874871 32.63914145 -7.2056681 30.24554274 -7.22460938 27.8515625 C-7.22754449 26.30989739 -7.22952849 24.76823012 -7.23046875 23.2265625 C-7.23765427 22.52109283 -7.24483978 21.81562317 -7.25224304 21.08877563 C-7.21671274 13.22710039 -5.76198829 5.76198829 0 0 Z " fill="#232323" transform="translate(98,305)"/>
<path d="M0 0 C0.33 0 0.66 0 1 0 C1.10883596 2.37625177 1.18766696 4.74743976 1.25 7.125 C1.30027344 8.12273438 1.30027344 8.12273438 1.3515625 9.140625 C1.45247821 14.28732613 0.22670806 17.05106847 -3 21 C-6.8531403 24.01550111 -10.40592988 25.46864329 -15 27 C-17.7372069 29.07650178 -18.32910563 30.69896221 -19 34 C-19.56867963 40.01488066 -18.76345079 43.59324846 -16 49 C-16.23361622 51.9202028 -16.75204411 54.31812131 -17.75 57.0625 C-18.12608177 59.97713375 -16.49710475 61.5447482 -15 64 C-14.8125 66.8125 -14.8125 66.8125 -15 69 C-15.886875 69.2475 -16.77375 69.495 -17.6875 69.75 C-22.96848485 72.32821666 -24.09361107 78.86897447 -26 84 C-26.94009784 86.04189252 -27.95066468 88.01178571 -29 90 C-29.99 89.67 -30.98 89.34 -32 89 C-31.33514684 86.99939641 -30.66803919 84.99954197 -30 83 C-29.64421875 81.91460937 -29.2884375 80.82921875 -28.921875 79.7109375 C-25.36956123 69.59868431 -25.36956123 69.59868431 -21.6875 67.1875 C-20.3571875 66.5996875 -20.3571875 66.5996875 -19 66 C-19.495 65.13375 -19.99 64.2675 -20.5 63.375 C-22.42981217 59.03292262 -22.46655679 55.95953852 -21.375 51.375 C-20.7554761 49.02718142 -20.7554761 49.02718142 -21.94921875 47.27734375 C-24.24881753 42.29345495 -23.59014994 36.34176955 -23 31 C-21.34992149 26.70837949 -19.00328616 24.61069592 -15.125 22.25 C-13.4522545 21.5809018 -11.77837179 20.91444332 -10.09765625 20.265625 C-8.37165517 19.57381271 -6.68249669 18.79176315 -5 18 C-4.67 17.01 -4.34 16.02 -4 15 C-2.68 14.67 -1.36 14.34 0 14 C0 9.38 0 4.76 0 0 Z " fill="#1E1E1E" transform="translate(138,51)"/>
<path d="M0 0 C0.99 0.99 1.98 1.98 3 3 C2.34 3.825 1.68 4.65 1 5.5 C-0.85515264 8.21187244 -1.19308546 9.9231489 -1 13.1875 C-1 17 -1 17 -2.6875 18.875 C-8.92864103 21.91123077 -14.05931351 22.85638312 -21 22 C-23.58219389 20.9102668 -25.63608115 19.54378374 -28 18 C-29.32 18 -30.64 18 -32 18 C-31.85950482 19.47968324 -31.71245174 20.95874516 -31.5625 22.4375 C-31.48128906 23.26121094 -31.40007812 24.08492188 -31.31640625 24.93359375 C-31.21069185 26.98662025 -31.21069185 26.98662025 -30 28 C-29.85884839 30.67058851 -29.95752893 33.32432238 -30 36 C-26.44047201 36.07119056 -23.14292404 36.02382067 -19.625 35.4375 C-18.75875 35.293125 -17.8925 35.14875 -17 35 C-16 36 -16 36 -15.90234375 38.06640625 C-15.91394531 38.89011719 -15.92554688 39.71382813 -15.9375 40.5625 C-15.94652344 41.38878906 -15.95554688 42.21507812 -15.96484375 43.06640625 C-15.97644531 43.70449219 -15.98804688 44.34257812 -16 45 C-18.7839183 43.60804085 -18.97898997 41.84424221 -20 39 C-20.99 39.495 -20.99 39.495 -22 40 C-23.64142541 40.14640501 -25.2898141 40.22096589 -26.9375 40.25 C-27.81277344 40.27578125 -28.68804687 40.3015625 -29.58984375 40.328125 C-32 40 -32 40 -33.80859375 38.765625 C-35.33473178 36.50393847 -35.27808402 35.20148279 -35.125 32.5 C-34.97470957 29.49419149 -35.02575264 27.92274209 -36 25 C-36.11632729 23.48233461 -36.17496239 21.9595654 -36.1875 20.4375 C-36.20167969 19.65246094 -36.21585938 18.86742187 -36.23046875 18.05859375 C-36 16 -36 16 -34 14 C-31.07425335 13.71222164 -28.84873159 13.52243486 -26 14 C-25.21625 14.66 -24.4325 15.32 -23.625 16 C-19.63972153 19.03640265 -15.84374324 18.52649383 -11 18 C-8.56187569 17.48989598 -6.35963572 16.82074286 -4 16 C-4.268125 14.845 -4.53625 13.69 -4.8125 12.5 C-5.45227476 7.78587021 -3.79427863 5.24529943 -1.12890625 1.46875 C-0.75636719 0.9840625 -0.38382813 0.499375 0 0 Z " fill="#1B1B1B" transform="translate(208,320)"/>
<path d="M0 0 C0.66 0 1.32 0 2 0 C2.33 0.845625 2.66 1.69125 3 2.5625 C5.62673252 7.07719652 8.96020898 9.75869364 13 13 C13.88300781 13.71027344 14.76601562 14.42054688 15.67578125 15.15234375 C17.41160481 16.54150501 19.15213086 17.92482138 20.8984375 19.30078125 C23 21 23 21 25 23 C22.875 24.625 22.875 24.625 20 26 C17.99105606 25.36079057 15.99220557 24.68960962 14 24 C11.71547193 23.72419137 9.42181617 23.5156214 7.125 23.375 C5.97257813 23.30023437 4.82015625 23.22546875 3.6328125 23.1484375 C2.32957031 23.07496094 2.32957031 23.07496094 1 23 C0.13190561 17.79826905 -0.12515348 12.83021184 -0.0625 7.5625 C-0.05798828 6.83095703 -0.05347656 6.09941406 -0.04882812 5.34570312 C-0.03718148 3.56376581 -0.01925191 1.78187137 0 0 Z " fill="#F1F1F1" transform="translate(146,540)"/>
<path d="M0 0 C0.495 1.485 0.495 1.485 1 3 C-2.70522101 7.22537703 -6.11265451 9.24643268 -11.5 10.9375 C-12.25031494 11.18274414 -13.00062988 11.42798828 -13.77368164 11.68066406 C-22.79003186 14.47458773 -32.07506245 16.2240577 -41.3359375 17.99584961 C-42.54378906 18.22925049 -43.75164062 18.46265137 -44.99609375 18.703125 C-46.62309204 19.00718262 -46.62309204 19.00718262 -48.28295898 19.31738281 C-51.19431819 19.88742667 -51.19431819 19.88742667 -54 22 C-55.00805555 24.17897492 -55.00805555 24.17897492 -55.6875 26.625 C-55.93886719 27.44226563 -56.19023437 28.25953125 -56.44921875 29.1015625 C-56.63097656 29.72804688 -56.81273437 30.35453125 -57 31 C-57.66 30.67 -58.32 30.34 -59 30 C-59.59917355 22.92975207 -59.59917355 22.92975207 -57.1875 19.1875 C-52.6638575 16.08303946 -48.32698108 15.16740224 -43 14 C-20.03632959 10.27359075 -20.03632959 10.27359075 0 0 Z " fill="#1A1A1A" transform="translate(268,291)"/>
<path d="M0 0 C0.33 0 0.66 0 1 0 C1.05395478 1.62463842 1.09277195 3.24978541 1.125 4.875 C1.14820313 5.77992188 1.17140625 6.68484375 1.1953125 7.6171875 C1 10 1 10 -1 12 C-4.625 12.125 -4.625 12.125 -8 12 C-8.07992187 12.60972656 -8.15984375 13.21945312 -8.2421875 13.84765625 C-9.24689119 16.70122188 -10.49716281 17.04117536 -13.125 18.4375 C-15.4142048 19.86312622 -15.4142048 19.86312622 -17 22 C-17.18347294 25.46851216 -16.7673514 28.47267476 -16.109375 31.87890625 C-15.96726844 35.93401837 -17.31705273 37.08679979 -20 40 C-20.78946609 42.68507329 -20.78946609 42.68507329 -21 45 C-22.5625 43.25 -22.5625 43.25 -24 41 C-23.73495121 37.99611368 -23.16695725 37.16695725 -21 35 C-20.93749402 31.47734177 -21.13497246 27.99822265 -21.3203125 24.48046875 C-20.94215001 20.3714105 -19.90398275 18.86143355 -17 16 C-14.75 15.1875 -14.75 15.1875 -13 15 C-13.680625 14.278125 -14.36125 13.55625 -15.0625 12.8125 C-17 10 -17 10 -16.8125 7.25 C-16 5 -16 5 -15 4 C-12.125 3.6875 -12.125 3.6875 -9 4 C-7.375 5.9375 -7.375 5.9375 -6 8 C-4.68 8.33 -3.36 8.66 -2 9 C-1.34 6.03 -0.68 3.06 0 0 Z " fill="#212121" transform="translate(192,358)"/>
<path d="M0 0 C0.33 0 0.66 0 1 0 C1.04254356 1.99954746 1.04080783 4.00041636 1 6 C-0.59353242 7.59353242 -2.5566523 7.42554028 -4.75 7.75 C-10.47053437 8.84507372 -12.92772604 11.13828834 -16.3125 15.8125 C-17.61812118 19.9667492 -17.80808173 23.95790183 -16.20703125 28.00390625 C-14.47335652 31.18563114 -13.03583084 32.97611278 -10 35 C-8.30522561 35.41421802 -6.59398764 35.76430827 -4.875 36.0625 C-0.10017575 36.89982425 -0.10017575 36.89982425 1 38 C1.07258946 40.18639453 1.08373783 42.37500389 1.0625 44.5625 C1.05347656 45.76003906 1.04445312 46.95757812 1.03515625 48.19140625 C1.02355469 49.11824219 1.01195312 50.04507813 1 51 C-0.485 51.495 -0.485 51.495 -2 52 C-2 48.04 -2 44.08 -2 40 C-3.98 39.9690625 -3.98 39.9690625 -6 39.9375 C-11.79465442 39.31500948 -15.26938843 36.32106807 -19 32 C-21.93171734 27.33416227 -21.71571766 22.32730049 -21 17 C-19.78230147 13.89565268 -18.16012772 11.52586364 -16 9 C-15.55398437 8.47148437 -15.10796875 7.94296875 -14.6484375 7.3984375 C-11.63145589 4.38145589 -9.22603982 3.70678389 -5.125 3.6875 C-3.74835409 3.76700925 -2.37209664 3.86279034 -1 4 C-0.67 2.68 -0.34 1.36 0 0 Z " fill="#191919" transform="translate(169,398)"/>
<path d="M0 0 C0.33 0 0.66 0 1 0 C1.79085407 20.16677875 1.79085407 20.16677875 -3 28 C-3.66 28.66 -4.32 29.32 -5 30 C-6.88229464 35.48901404 -7.22487892 42.87629132 -5.10546875 48.28125 C-4.38368195 49.56669364 -3.64597652 50.8433633 -2.890625 52.109375 C-1.34127532 55.39834537 -1.74487259 58.42821627 -2 62 C-2.99 62.495 -2.99 62.495 -4 63 C-4.27263672 62.03900391 -4.27263672 62.03900391 -4.55078125 61.05859375 C-6.22637026 55.28467552 -6.22637026 55.28467552 -8.6875 49.8125 C-11.20590726 44.25601414 -10.66922678 36.91806424 -10 31 C-8.609375 28.25390625 -8.609375 28.25390625 -7 26 C-3.02332999 19.87044312 -2.47982662 14.44312249 -2.2734375 7.171875 C-2.0163217 4.18933173 -1.55434389 2.51181973 0 0 Z " fill="#141414" transform="translate(104,244)"/>
<path d="M0 0 C0.66 0 1.32 0 2 0 C2 4.29 2 8.58 2 13 C3.65 13.33 5.3 13.66 7 14 C7 14.66 7 15.32 7 16 C7.67417969 15.84015625 8.34835938 15.6803125 9.04296875 15.515625 C18.10293071 13.93581657 26.60155562 14.33522427 35 18 C38.3347049 18.2535421 38.3347049 18.2535421 41 18 C41.495 20.475 41.495 20.475 42 23 C40.26969709 22.71515154 38.54079286 22.42180062 36.8125 22.125 C35.84957031 21.96257813 34.88664062 21.80015625 33.89453125 21.6328125 C31 21 31 21 28.42578125 19.94140625 C21.38912497 17.21059439 12.32653795 19.21998836 5 20 C4.67 18.68 4.34 17.36 4 16 C2.68 15.67 1.36 15.34 0 15 C0 10.05 0 5.1 0 0 Z " fill="#171717" transform="translate(104,502)"/>
<path d="M0 0 C0.99 0.33 1.98 0.66 3 1 C2.95359375 1.7734375 2.9071875 2.546875 2.859375 3.34375 C2.60975856 10.54696738 3.33213281 14.81047412 7 21 C7 21.66 7 22.32 7 23 C7.66 22.67 8.32 22.34 9 22 C12.4375 21.6875 12.4375 21.6875 16 22 C18.65106739 24.42711877 18.98656418 25.84163641 19.29296875 29.453125 C19.25816406 30.70609375 19.22335938 31.9590625 19.1875 33.25 C19.16042969 34.51328125 19.13335937 35.7765625 19.10546875 37.078125 C19.07066406 38.04234375 19.03585938 39.0065625 19 40 C18.67 40 18.34 40 18 40 C18 35.71 18 31.42 18 27 C17.34 27 16.68 27 16 27 C16 31.62 16 36.24 16 41 C15.67 41 15.34 41 15 41 C14.505 33.575 14.505 33.575 14 26 C10.04 26.495 10.04 26.495 6 27 C5.01780373 25.23084525 4.03934641 23.45961431 3.0625 21.6875 C2.51722656 20.70136719 1.97195312 19.71523438 1.41015625 18.69921875 C-0.5505008 14.94627132 -1.1374416 12.18037777 -1.125 8 C-1.12757812 7.13375 -1.13015625 6.2675 -1.1328125 5.375 C-1 3 -1 3 0 0 Z " fill="#1A1A1A" transform="translate(88,475)"/>
<path d="M0 0 C0.99 0.99 1.98 1.98 3 3 C1.76061049 8.16412295 0.08190045 11.57759813 -3 16 C-1.33710938 16.38091797 -1.33710938 16.38091797 0.359375 16.76953125 C1.8230367 17.11668178 3.28657187 17.46436615 4.75 17.8125 C5.47960937 17.97814453 6.20921875 18.14378906 6.9609375 18.31445312 C10.93718044 19.2723662 13.90800089 20.16024292 17 23 C15.4375 24.1875 15.4375 24.1875 13 25 C11.38907021 24.29521822 9.78180487 23.57911549 8.20703125 22.796875 C4.44320339 21.43789998 0.54388931 21.47295903 -3.42578125 21.30859375 C-6 21 -6 21 -8 19 C-7.63028453 15.86714787 -6.32328337 13.75291434 -4.5625 11.1875 C-2.17435739 7.50865604 -0.97662437 4.26163363 0 0 Z " fill="#232323" transform="translate(267,104)"/>
<path d="M0 0 C0.66 0 1.32 0 2 0 C2.33 5.28 2.66 10.56 3 16 C6.19010417 15.93489583 9.38020833 15.86979167 12.5703125 15.8046875 C16 16 16 16 19.2421875 17.1328125 C20.15226562 17.41898438 21.06234375 17.70515625 22 18 C22.99 17.34 23.98 16.68 25 16 C28.1875 15.875 28.1875 15.875 31 16 C31 16.99 31 17.98 31 19 C21.89285714 21.67857143 21.89285714 21.67857143 19 22 C18.01 21.34 17.02 20.68 16 20 C13.2389367 19.69858629 10.57926963 19.49142006 7.8125 19.375 C5.234375 19.25125 2.65625 19.1275 0 19 C0 12.73 0 6.46 0 0 Z " fill="#131313" transform="translate(144,547)"/>
<path d="M0 0 C0.66 0 1.32 0 2 0 C0.62628343 5.88735671 -1.04393409 10.05204441 -5.91015625 13.796875 C-8.98789863 15.56873417 -12.15443425 16.41136992 -15.58203125 17.27734375 C-17.93926915 17.98184942 -19.63153558 18.86151845 -21.6875 20.1875 C-25.49067569 22.26848292 -27.72797607 22.58635623 -32 22 C-32.66 21.01 -33.32 20.02 -34 19 C-33.35933594 18.90203125 -32.71867187 18.8040625 -32.05859375 18.703125 C-27.00486446 17.82945496 -23.13271836 16.78245987 -18.84375 13.98046875 C-16.60473608 12.78980668 -14.4767755 12.40094178 -12 11.875 C-6.32407258 10.36084253 -4.28628118 6.97382343 -1.375 2.08203125 C-0.92125 1.39496094 -0.4675 0.70789063 0 0 Z " fill="#1D1D1D" transform="translate(315,108)"/>
<path d="M0 0 C0.33 0 0.66 0 1 0 C1.62134891 11.6330324 1.62134891 11.6330324 -0.5625 16.4375 C-3.97982156 20.03006882 -7.57122186 23.39003544 -11.71484375 26.13671875 C-15.48738151 28.76550423 -16.50098769 30.96688633 -17.375 35.3125 C-17.60716351 36.8716373 -17.82358708 38.43357493 -18 40 C-18.33 40 -18.66 40 -19 40 C-19 38.02 -19 36.04 -19 34 C-19.66 34 -20.32 34 -21 34 C-21 36.64 -21 39.28 -21 42 C-21.33 42 -21.66 42 -22 42 C-22.60907038 36.15292437 -22.22154548 31.87166905 -18.828125 26.9765625 C-15.83381344 23.73912308 -12.29041773 21.37440835 -8.62109375 18.95703125 C-5.87819358 16.90905363 -4.10891857 14.67191215 -2 12 C-1.34 12 -0.68 12 0 12 C0 8.04 0 4.08 0 0 Z " fill="#353535" transform="translate(170,437)"/>
<path d="M0 0 C0.99 0.99 1.98 1.98 3 3 C2.34 3.825 1.68 4.65 1 5.5 C-0.85515264 8.21187244 -1.19308546 9.9231489 -1 13.1875 C-1 17 -1 17 -2.6875 18.875 C-7.12508373 21.03382452 -10.63674089 22.29188736 -15.625 22.3125 C-16.56601563 22.32925781 -17.50703125 22.34601563 -18.4765625 22.36328125 C-21.36812347 21.9470039 -22.22550808 21.25682026 -24 19 C-21.03645284 18.01215095 -19.31821746 17.9529208 -16.25 18.0625 C-11.74159954 18.12199502 -8.24403925 17.47618756 -4 16 C-4.268125 14.845 -4.53625 13.69 -4.8125 12.5 C-5.45227476 7.78587021 -3.79427863 5.24529943 -1.12890625 1.46875 C-0.75636719 0.9840625 -0.38382813 0.499375 0 0 Z " fill="#141414" transform="translate(208,320)"/>
<path d="M0 0 C3.66069478 3.41664846 5.77812981 5.84757098 6.30078125 10.91796875 C6.32290926 17.09168468 5.99308486 22.2243094 3.734375 27.98828125 C2.64811903 30.96392924 2.33413649 33.85911698 2 37 C1.34 35.68 0.68 34.36 0 33 C-0.66 33.99 -1.32 34.98 -2 36 C-1.5777663 31.43987601 -0.88095007 27.41327638 0.5625 23.0625 C2.24650945 17.62698435 3.40308943 12.29209727 1.09765625 6.8828125 C-0.08155234 4.72938465 -0.08155234 4.72938465 -2 2 C-1.34 1.34 -0.68 0.68 0 0 Z " fill="#1B1B1B" transform="translate(104,212)"/>
<path d="M0 0 C0.33 0 0.66 0 1 0 C1.16798051 2.27073652 1.33434113 4.54159293 1.5 6.8125 C1.5928125 8.07707031 1.685625 9.34164062 1.78125 10.64453125 C2.08292531 15.27201501 1.85781551 19.74990471 1.5625 24.375 C1.48128906 25.68210938 1.40007812 26.98921875 1.31640625 28.3359375 C1 32 1 32 0.40234375 34.8515625 C-0.23151879 37.04047204 -0.23151879 37.04047204 1 39 C-0.98 39.495 -0.98 39.495 -3 40 C-5.14915785 36.77626323 -5.38286803 35.73296326 -5 32 C-4.34 31.34 -3.68 30.68 -3 30 C-2.75622117 26.64255888 -2.75622117 26.64255888 -2.875 22.875 C-2.89304687 21.59367187 -2.91109375 20.31234375 -2.9296875 18.9921875 C-2.95289063 18.00476563 -2.97609375 17.01734375 -3 16 C-2.34 15.67 -1.68 15.34 -1 15 C-0.68758629 12.45058627 -0.48696579 9.99638487 -0.375 7.4375 C-0.33632813 6.72658203 -0.29765625 6.01566406 -0.2578125 5.28320312 C-0.16328217 3.52257575 -0.08054183 1.76132272 0 0 Z " fill="#292929" transform="translate(261,200)"/>
<path d="M0 0 C0.33 0 0.66 0 1 0 C1.10883596 2.37625177 1.18766696 4.74743976 1.25 7.125 C1.30027344 8.12273438 1.30027344 8.12273438 1.3515625 9.140625 C1.45247821 14.28732613 0.22670806 17.05106847 -3 21 C-6.8531403 24.01550111 -10.40592988 25.46864329 -15 27 C-17.50703864 28.96981607 -18.70401211 31.10895008 -20 34 C-20.33 33.34 -20.66 32.68 -21 32 C-21.66 32.99 -22.32 33.98 -23 35 C-22.54625711 30.12226395 -21.47822112 27.47822112 -18 24 C-15.42309423 22.51112111 -12.86416117 21.33645619 -10.09375 20.2578125 C-8.367888 19.57171162 -6.68046393 18.79080656 -5 18 C-4.67 17.01 -4.34 16.02 -4 15 C-2.68 14.67 -1.36 14.34 0 14 C0 9.38 0 4.76 0 0 Z " fill="#262626" transform="translate(138,51)"/>
<path d="M0 0 C5.36313186 1.51267822 10.59055106 3.53999762 15 7 C16.5 10.375 16.5 10.375 16 14 C13.96787384 16.71322339 11.57542522 18.8141349 9 21 C7.99095079 21.99086815 6.98773143 22.98788014 6 24 C5.25 22.3125 5.25 22.3125 5 20 C7.08117669 16.87823497 8.86651634 15.08898911 12 13 C11.92234541 11.09161098 11.92234541 11.09161098 11 9 C8.47413374 7.20337343 8.47413374 7.20337343 5.4375 5.75 C4.42558594 5.22921875 3.41367187 4.7084375 2.37109375 4.171875 C1.58863281 3.78515625 0.80617188 3.3984375 0 3 C0 2.01 0 1.02 0 0 Z " fill="#151515" transform="translate(263,82)"/>
<path d="M0 0 C6.10312763 0.3129809 10.37947769 3.24922306 15 7 C17.73221098 10.47735943 18 11.49200867 18 16 C16.68799596 17.35432675 15.35368596 18.68733482 14 20 C13.2127322 22.1381966 13.2127322 22.1381966 13 24 C12.34 24 11.68 24 11 24 C10.875 20.625 10.875 20.625 11 17 C11.66 16.34 12.32 15.68 13 15 C13.01276956 12.50225079 13.01276956 12.50225079 12 10 C10.05987786 8.18381656 10.05987786 8.18381656 7.625 6.8125 C6.83351563 6.32394531 6.04203125 5.83539063 5.2265625 5.33203125 C4.49179687 4.89246094 3.75703125 4.45289063 3 4 C2.01 3.34 1.02 2.68 0 2 C0 1.34 0 0.68 0 0 Z " fill="#131313" transform="translate(259,239)"/>
<path d="M0 0 C0.33 0.99 0.66 1.98 1 3 C-4.61 8.61 -10.22 14.22 -16 20 C-16.33 19.34 -16.66 18.68 -17 18 C-17.66 17.67 -18.32 17.34 -19 17 C-17.04761147 14.99387601 -15.08862178 12.99507567 -13.125 11 C-12.29162109 10.14148438 -12.29162109 10.14148438 -11.44140625 9.265625 C-9.99865596 7.80549218 -8.5025626 6.39850702 -7 5 C-6.34 5 -5.68 5 -5 5 C-4.731875 4.360625 -4.46375 3.72125 -4.1875 3.0625 C-3 1 -3 1 0 0 Z " fill="#222222" transform="translate(296,146)"/>
<path d="M0 0 C-1.15422808 2.8331053 -2.11094346 4.09039837 -4.53125 6.0625 C-7.91798031 10.09228036 -7.77620173 13.20250981 -7.8125 18.3125 C-7.83763672 19.14845703 -7.86277344 19.98441406 -7.88867188 20.84570312 C-7.9472699 22.89663409 -7.97656493 24.94836593 -8 27 C-8.99 27.33 -9.98 27.66 -11 28 C-12.30663215 9.30259651 -12.30663215 9.30259651 -9.32421875 4.046875 C-6.17304503 1.30472018 -4.22464295 0 0 0 Z " fill="#171717" transform="translate(146,38)"/>
<path d="M0 0 C1.65 0 3.3 0 5 0 C4.8125 2.375 4.8125 2.375 4 5 C1.4375 6.3125 1.4375 6.3125 -1 7 C-0.34 7.4125 0.32 7.825 1 8.25 C1.66 8.8275 2.32 9.405 3 10 C3 11.32 3 12.64 3 14 C2.01 14.33 1.02 14.66 0 15 C-0.37125 14.1028125 -0.37125 14.1028125 -0.75 13.1875 C-2.16370012 10.71352479 -3.65055383 9.56629745 -6 8 C-5.67 6.35 -5.34 4.7 -5 3 C-3.68 3 -2.36 3 -1 3 C-0.67 2.01 -0.34 1.02 0 0 Z " fill="#222222" transform="translate(102,398)"/>
<path d="M0 0 C0.33 0.99 0.66 1.98 1 3 C-2.94395951 7.61032595 -6.39984537 9.21500257 -12.1875 10.8125 C-12.91130859 11.02841797 -13.63511719 11.24433594 -14.38085938 11.46679688 C-19.61321925 13 -19.61321925 13 -22 13 C-21.984375 11.15625 -21.984375 11.15625 -21 9 C-18.3772763 7.97007197 -15.96148099 7.19219145 -13.25 6.5 C-7.9321072 5.11313947 -4.13952208 3.84617012 0 0 Z " fill="#1E1E1E" transform="translate(268,291)"/>
<path d="M0 0 C3.375 0.3125 3.375 0.3125 7 1 C7.66 1.99 8.32 2.98 9 4 C11.6556728 4.58348752 11.6556728 4.58348752 14.625 4.6875 C15.62789062 4.75324219 16.63078125 4.81898437 17.6640625 4.88671875 C18.43492187 4.92410156 19.20578125 4.96148437 20 5 C20 5.33 20 5.66 20 6 C16.7 6 13.4 6 10 6 C10 6.66 10 7.32 10 8 C13.3 8 16.6 8 20 8 C20 8.33 20 8.66 20 9 C15.96095444 9.28578153 12.02960231 9.45668826 8 9 C5.375 6.5 5.375 6.5 4 4 C3.34 4 2.68 4 2 4 C0.3553326 6.46326712 0.3553326 6.46326712 -1 9 C-1.33 8.34 -1.66 7.68 -2 7 C-2.66 6.67 -3.32 6.34 -4 6 C-2.68 4.02 -1.36 2.04 0 0 Z " fill="#181818" transform="translate(148,31)"/>
<path d="M0 0 C0.66 0 1.32 0 2 0 C2.33 0.99 2.66 1.98 3 3 C2.071875 4.1446875 2.071875 4.1446875 1.125 5.3125 C-3.28828475 10.89400718 -2.30490022 19.01693367 -2.5625 25.875 C-2.60568359 26.94492187 -2.64886719 28.01484375 -2.69335938 29.1171875 C-2.79892817 31.74467754 -2.90103791 34.37225422 -3 37 C-3.33 37 -3.66 37 -4 37 C-4.33 29.74 -4.66 22.48 -5 15 C-5.33 15 -5.66 15 -6 15 C-6.7440423 9.04766161 -4.36965168 5.62912805 -1 1 C-0.67 0.67 -0.34 0.34 0 0 Z " fill="#3C3C3C" transform="translate(98,305)"/>
<path d="M0 0 C0.33 0 0.66 0 1 0 C1.05395478 1.62463842 1.09277195 3.24978541 1.125 4.875 C1.14820313 5.77992188 1.17140625 6.68484375 1.1953125 7.6171875 C1 10 1 10 -1 12 C-3.53125 12.1171875 -3.53125 12.1171875 -6.5 11.875 C-7.4796875 11.81054688 -8.459375 11.74609375 -9.46875 11.6796875 C-12 11 -12 11 -13.34375 8.9453125 C-13.66859375 7.98238281 -13.66859375 7.98238281 -14 7 C-12.35 6.01 -10.7 5.02 -9 4 C-8.5875 4.639375 -8.175 5.27875 -7.75 5.9375 C-5.99276136 8.41464576 -5.99276136 8.41464576 -2 9 C-1.34 6.03 -0.68 3.06 0 0 Z " fill="#1A1A1A" transform="translate(192,358)"/>
<path d="M0 0 C0.66 0 1.32 0 2 0 C2.33 5.28 2.66 10.56 3 16 C5.64 16 8.28 16 11 16 C11.99 16.66 12.98 17.32 14 18 C9.38 18.33 4.76 18.66 0 19 C0 12.73 0 6.46 0 0 Z " fill="#080808" transform="translate(144,547)"/>
<path d="M0 0 C0.33 0 0.66 0 1 0 C1.04254356 1.99954746 1.04080783 4.00041636 1 6 C-1.0103554 8.0103554 -4.73245802 7.86199466 -7.45703125 8.3046875 C-10.0832059 8.85142255 -10.0832059 8.85142255 -12.13671875 10.6328125 C-12.75160156 11.08398438 -13.36648437 11.53515625 -14 12 C-14.99 11.67 -15.98 11.34 -17 11 C-14.78071806 8.09197539 -13.07030857 6.04687238 -10 4 C-7.73828125 3.8046875 -7.73828125 3.8046875 -5.3125 3.875 C-4.10013672 3.90207031 -4.10013672 3.90207031 -2.86328125 3.9296875 C-1.94095703 3.96449219 -1.94095703 3.96449219 -1 4 C-0.67 2.68 -0.34 1.36 0 0 Z " fill="#1B1B1B" transform="translate(169,398)"/>
<path d="M0 0 C2.06547922 3.09821883 3.56243611 6.18449352 5.125 9.5625 C5.66382813 10.71878906 6.20265625 11.87507812 6.7578125 13.06640625 C8 16 8 16 8 18 C6.02 18.33 4.04 18.66 2 19 C2.66 18.67 3.32 18.34 4 18 C3.44119141 16.93072266 3.44119141 16.93072266 2.87109375 15.83984375 C0.00914067 10.04575346 -1.82681236 6.32358124 0 0 Z " fill="#181818" transform="translate(137,502)"/>
<path d="M0 0 C1.22589844 0.01353516 1.22589844 0.01353516 2.4765625 0.02734375 C3.41628906 0.04474609 3.41628906 0.04474609 4.375 0.0625 C4.375 1.3825 4.375 2.7025 4.375 4.0625 C3.13079353 4.5970256 1.87929064 5.11458611 0.625 5.625 C-0.07109375 5.91503906 -0.7671875 6.20507812 -1.484375 6.50390625 C-3.92512784 7.14081803 -5.2653655 6.86498831 -7.625 6.0625 C-7.25 3.625 -7.25 3.625 -6.625 1.0625 C-4.21954362 -0.14022819 -2.67503047 -0.03821472 0 0 Z " fill="#111111" transform="translate(188.625,558.9375)"/>
<path d="M0 0 C0.33 0 0.66 0 1 0 C1.62272262 11.65875128 1.62272262 11.65875128 -0.625 16.5 C-3.27195532 19.28626876 -5.95956743 21.65057483 -9 24 C-9.99 23.01 -10.98 22.02 -12 21 C-11.0925 20.443125 -10.185 19.88625 -9.25 19.3125 C-6.14929372 17.10622823 -4.31084508 14.97108653 -2 12 C-1.34 12 -0.68 12 0 12 C0 8.04 0 4.08 0 0 Z " fill="#323232" transform="translate(170,437)"/>
<path d="M0 0 C0.99 0.495 0.99 0.495 2 1 C1.96519531 1.69867187 1.93039063 2.39734375 1.89453125 3.1171875 C1.86746094 4.02726563 1.84039062 4.93734375 1.8125 5.875 C1.77769531 6.77992188 1.74289063 7.68484375 1.70703125 8.6171875 C1.80371094 9.40351562 1.90039062 10.18984375 2 11 C2.99 11.66 3.98 12.32 5 13 C4.67 15.31 4.34 17.62 4 20 C3.34 20 2.68 20 2 20 C2 24.29 2 28.58 2 33 C1.67 33 1.34 33 1 33 C0.16941486 21.97991499 -0.12308347 11.05016019 0 0 Z " fill="#3B3B3B" transform="translate(142,527)"/>
<path d="M0 0 C4.53438557 2.26719278 4.53438557 2.26719278 5.8125 5.9375 C6.06644531 6.62714844 6.32039062 7.31679688 6.58203125 8.02734375 C7 10 7 10 6 13 C4.02 12.01 2.04 11.02 0 10 C0 6.7 0 3.4 0 0 Z " fill="#0A0A0A" transform="translate(143,528)"/>
<path d="M0 0 C6.15234375 -0.09765625 6.15234375 -0.09765625 8 0 C9 1 9 1 9.09765625 3.94140625 C9.08605469 5.13636719 9.07445312 6.33132813 9.0625 7.5625 C9.05347656 8.76003906 9.04445312 9.95757812 9.03515625 11.19140625 C9.02355469 12.11824219 9.01195312 13.04507812 9 14 C8.01 14.33 7.02 14.66 6 15 C6 11.04 6 7.08 6 3 C4.02 2.34 2.04 1.68 0 1 C0 0.67 0 0.34 0 0 Z " fill="#171717" transform="translate(161,435)"/>
<path d="M0 0 C2 2 2 2 2.125 5.625 C2.08375 6.73875 2.0425 7.8525 2 9 C-0.375 8.6875 -0.375 8.6875 -3 8 C-3.66 7.01 -4.32 6.02 -5 5 C-7.05925139 4.27617533 -7.05925139 4.27617533 -9 4 C-9 3.34 -9 2.68 -9 2 C-7.54536519 1.61090015 -6.08608793 1.23911971 -4.625 0.875 C-3.40683594 0.56175781 -3.40683594 0.56175781 -2.1640625 0.2421875 C-1.44992188 0.16226562 -0.73578125 0.08234375 0 0 Z " fill="#E3E3E3" transform="translate(188,358)"/>
<path d="M0 0 C0.33 0 0.66 0 1 0 C1.02689449 2.95839355 1.04678741 5.91654427 1.0625 8.875 C1.07087891 9.71675781 1.07925781 10.55851563 1.08789062 11.42578125 C1.09111328 12.23144531 1.09433594 13.03710938 1.09765625 13.8671875 C1.10289307 14.61081543 1.10812988 15.35444336 1.11352539 16.12060547 C1 18 1 18 0 20 C-0.66 20 -1.32 20 -2 20 C-2.05407567 17.41638482 -2.093707 14.83390745 -2.125 12.25 C-2.14175781 11.52039063 -2.15851563 10.79078125 -2.17578125 10.0390625 C-2.21072239 6.1955376 -2.17499684 3.25393228 0 0 Z " fill="#0C0C0C" transform="translate(104,244)"/>
<path d="M0 0 C3.3125 -0.25 3.3125 -0.25 7 0 C9.66084713 2.41895193 9.98661157 3.84219504 10.29296875 7.453125 C10.25816406 8.70609375 10.22335938 9.9590625 10.1875 11.25 C10.16042969 12.51328125 10.13335937 13.7765625 10.10546875 15.078125 C10.07066406 16.04234375 10.03585938 17.0065625 10 18 C9.67 18 9.34 18 9 18 C9 13.71 9 9.42 9 5 C8.34 5 7.68 5 7 5 C7 9.62 7 14.24 7 19 C6.67 19 6.34 19 6 19 C5.98582031 17.96359375 5.97164063 16.9271875 5.95703125 15.859375 C5.91011907 14.48953943 5.86187173 13.11974913 5.8125 11.75 C5.80669922 11.06808594 5.80089844 10.38617188 5.79492188 9.68359375 C5.6243492 5.7793748 5.29351169 4.2858705 2.44921875 1.515625 C1.64097656 1.01546875 0.83273438 0.5153125 0 0 Z " fill="#4D4D4D" transform="translate(97,497)"/>
<path d="M0 0 C0 2.97 0 5.94 0 9 C-2.7839183 7.60804085 -2.97898997 5.84424221 -4 3 C-4.99 3.495 -4.99 3.495 -6 4 C-7.99960012 4.039992 -10.00047242 4.04346799 -12 4 C-12 3.34 -12 2.68 -12 2 C-4.71428571 -1.57142857 -4.71428571 -1.57142857 0 0 Z " fill="#0D0D0D" transform="translate(192,356)"/>
<path d="M0 0 C0.33 0.66 0.66 1.32 1 2 C1.66 2 2.32 2 3 2 C1.83188097 5.95363363 0.56620675 8.79224156 -2 12 C-2.69580267 13.31836295 -3.37224433 14.64791086 -4 16 C-6 13 -6 13 -5.8125 11.0625 C-4.87598946 8.685204 -3.5400511 7.03286745 -2 5 C-1.28837557 3.35202764 -0.60968047 1.68834592 0 0 Z " fill="#222222" transform="translate(101,262)"/>
<path d="M0 0 C0.99 0.99 1.98 1.98 3 3 C1.87522659 7.41257263 0.84859279 11.38447839 -2 15 C-3.32 15 -4.64 15 -6 15 C-5.71382813 14.45859375 -5.42765625 13.9171875 -5.1328125 13.359375 C-3.8592283 10.70680653 -2.86453042 8.02068518 -1.875 5.25 C-1.34519531 3.77273437 -1.34519531 3.77273437 -0.8046875 2.265625 C-0.53914063 1.51796875 -0.27359375 0.7703125 0 0 Z " fill="#1B1B1B" transform="translate(267,104)"/>
<path d="M0 0 C-0.33 0.99 -0.66 1.98 -1 3 C-5.31035482 4.34256953 -8.47781648 5 -13 5 C-13 4.34 -13 3.68 -13 3 C-13.99 2.67 -14.98 2.34 -16 2 C-14.08654673 1.46748234 -12.1690705 0.94940517 -10.25 0.4375 C-9.18265625 0.14746094 -8.1153125 -0.14257812 -7.015625 -0.44140625 C-4.15664073 -0.97098494 -2.68402617 -0.98370862 0 0 Z " fill="#282828" transform="translate(247,302)"/>
<path d="M0 0 C0.66 0 1.32 0 2 0 C2 4.29 2 8.58 2 13 C3.32 13.33 4.64 13.66 6 14 C5.67 15.65 5.34 17.3 5 19 C4.67 18.01 4.34 17.02 4 16 C2.68 15.67 1.36 15.34 0 15 C0 10.05 0 5.1 0 0 Z " fill="#020202" transform="translate(104,502)"/>
<path d="M0 0 C6.16529701 0.31616908 10.17268433 3.49215061 15 7 C13.359375 8.203125 13.359375 8.203125 11 9 C8.203125 7.734375 8.203125 7.734375 5.25 5.75 C4.26515625 5.10546875 3.2803125 4.4609375 2.265625 3.796875 C1.51796875 3.20390625 0.7703125 2.6109375 0 2 C0 1.34 0 0.68 0 0 Z " fill="#1C1C1C" transform="translate(259,239)"/>
<path d="M0 0 C0.66 0 1.32 0 2 0 C0.3833652 6.03280791 -1.16709462 9.950809 -6 14 C-6.99 13.67 -7.98 13.34 -9 13 C-8.06398754 11.58235006 -7.1261208 10.16592432 -6.1875 8.75 C-5.66542969 7.96109375 -5.14335937 7.1721875 -4.60546875 6.359375 C-1.4860411 1.77510663 -1.4860411 1.77510663 0 0 Z " fill="#131313" transform="translate(315,108)"/>
<path d="M0 0 C0.33 0 0.66 0 1 0 C1.33 1.65 1.66 3.3 2 5 C3.98 5.66 5.96 6.32 8 7 C7.34 9.64 6.68 12.28 6 15 C5.67 15 5.34 15 5 15 C5 13.35 5 11.7 5 10 C3.824375 9.9071875 3.824375 9.9071875 2.625 9.8125 C1.75875 9.544375 0.8925 9.27625 0 9 C-1.3125 6.4375 -1.3125 6.4375 -2 4 C-1.34 4 -0.68 4 0 4 C0 2.68 0 1.36 0 0 Z " fill="#353535" transform="translate(272,259)"/>
<path d="M0 0 C0.74609375 1.703125 0.74609375 1.703125 1 4 C-0.65234375 6.359375 -0.65234375 6.359375 -2.9375 8.75 C-4.06478516 9.94882813 -4.06478516 9.94882813 -5.21484375 11.171875 C-5.80394531 11.77515625 -6.39304687 12.3784375 -7 13 C-8.32 12.67 -9.64 12.34 -11 12 C-9.92338719 10.5574598 -8.83839897 9.12116839 -7.75 7.6875 C-6.84507812 6.48673828 -6.84507812 6.48673828 -5.921875 5.26171875 C-4.09729864 3.11450388 -2.31702954 1.58398701 0 0 Z " fill="#101010" transform="translate(305,134)"/>
<path d="M0 0 C0 0.66 0 1.32 0 2 C1.65 2 3.3 2 5 2 C5 2.33 5 2.66 5 3 C3.576875 3.2784375 3.576875 3.2784375 2.125 3.5625 C1.09375 4.036875 0.0625 4.51125 -1 5 C-2.22969878 8.51190809 -2.22969878 8.51190809 -3 12 C-3.99 12.33 -4.98 12.66 -6 13 C-5.19444444 0 -5.19444444 0 0 0 Z " fill="#282828" transform="translate(320,96)"/>
<path d="M0 0 C0.66 0 1.32 0 2 0 C1.34595525 6.93287435 1.34595525 6.93287435 -2 10 C-2.72197162 12.60611077 -2.72197162 12.60611077 -3 15 C-4.5625 13.25 -4.5625 13.25 -6 11 C-5.79409595 7.6025832 -4.36894048 6.27418286 -2 4 C-0.82425289 1.90010348 -0.82425289 1.90010348 0 0 Z " fill="#242424" transform="translate(174,388)"/>
<path d="M0 0 C0.66 0.33 1.32 0.66 2 1 C1.34 4.63 0.68 8.26 0 12 C-0.99 12 -1.98 12 -3 12 C-3.36923077 4.61538462 -3.36923077 4.61538462 -1.5 1.5 C-1.005 1.005 -0.51 0.51 0 0 Z " fill="#1E1E1E" transform="translate(212,309)"/>
<path d="M0 0 C0.33 0 0.66 0 1 0 C1.16798051 2.27073652 1.33434113 4.54159293 1.5 6.8125 C1.5928125 8.07707031 1.685625 9.34164062 1.78125 10.64453125 C1.91914781 12.75978517 2 14.88025592 2 17 C1.525625 17.433125 1.05125 17.86625 0.5625 18.3125 C-1.62100982 20.6706906 -1.65266951 22.87402561 -2 26 C-2.33 26 -2.66 26 -3 26 C-3 22.7 -3 19.4 -3 16 C-2.34 15.67 -1.68 15.34 -1 15 C-0.68758629 12.45058627 -0.48696579 9.99638487 -0.375 7.4375 C-0.33632813 6.72658203 -0.29765625 6.01566406 -0.2578125 5.28320312 C-0.16328217 3.52257575 -0.08054183 1.76132272 0 0 Z " fill="#484848" transform="translate(261,200)"/>
<path d="M0 0 C3 0 3 0 5.6875 2.25 C8 5 8 5 8 9 C7.01 9.33 6.02 9.66 5 10 C4.731875 9.38125 4.46375 8.7625 4.1875 8.125 C3.04443152 5.7004767 3.04443152 5.7004767 0 4 C0 2.68 0 1.36 0 0 Z " fill="#161616" transform="translate(97,403)"/>
<path d="M0 0 C1.55078125 1.640625 1.55078125 1.640625 3 4 C2.85546875 6.796875 2.85546875 6.796875 2.1875 9.75 C1.86845703 11.22726563 1.86845703 11.22726563 1.54296875 12.734375 C1.36378906 13.48203125 1.18460937 14.2296875 1 15 C0.34 13.68 -0.32 12.36 -1 11 C-1.66 11.99 -2.32 12.98 -3 14 C-2.48594831 9.03083364 -1.76615118 4.70973649 0 0 Z " fill="#3D3D3D" transform="translate(105,234)"/>
<path d="M0 0 C0.33 0 0.66 0 1 0 C1 1.65 1 3.3 1 5 C1.66 5 2.32 5 3 5 C3.33 5.66 3.66 6.32 4 7 C6.52733235 7.65555119 6.52733235 7.65555119 9 8 C8.01 8.33 7.02 8.66 6 9 C6 9.66 6 10.32 6 11 C1.25 10.25 1.25 10.25 -1 8 C-0.96712417 5.27130593 -0.43602229 2.7033382 0 0 Z " fill="#303030" transform="translate(174,349)"/>
<path d="M0 0 C0.33 0 0.66 0 1 0 C1 4.29 1 8.58 1 13 C0.01 13.33 -0.98 13.66 -2 14 C-2.05437607 12.41705218 -2.09296271 10.83355744 -2.125 9.25 C-2.14820312 8.36828125 -2.17140625 7.4865625 -2.1953125 6.578125 C-1.99139502 3.8864142 -1.36551721 2.30095026 0 0 Z " fill="#131313" transform="translate(117,82)"/>
<path d="M0 0 C1.37562854 1.28965176 2.70766393 2.62689293 4 4 C4 4.66 4 5.32 4 6 C2.02 6.33 0.04 6.66 -2 7 C-2.66 5.68 -3.32 4.36 -4 3 C-2.68 2.01 -1.36 1.02 0 0 Z " fill="#656565" transform="translate(182,362)"/>
<path d="M0 0 C1.2065625 0.0309375 1.2065625 0.0309375 2.4375 0.0625 C0.9525 1.5475 0.9525 1.5475 -0.5625 3.0625 C0.0975 4.7125 0.7575 6.3625 1.4375 8.0625 C0.1175 8.0625 -1.2025 8.0625 -2.5625 8.0625 C-3.2225 7.4025 -3.8825 6.7425 -4.5625 6.0625 C-3.83457637 0.09352625 -3.83457637 0.09352625 0 0 Z " fill="#0A0A0A" transform="translate(179.5625,361.9375)"/>
<path d="M0 0 C0.66 0 1.32 0 2 0 C2 4.95 2 9.9 2 15 C1.01 15.33 0.02 15.66 -1 16 C-0.67 10.72 -0.34 5.44 0 0 Z " fill="#080808" transform="translate(136,50)"/>
<path d="M0 0 C3.78717347 1.48781815 5.77407001 3.61988409 8 7 C7.67 7.99 7.34 8.98 7 10 C4.06799526 7.14723863 1.35684596 4.34920216 -1 1 C-0.67 0.67 -0.34 0.34 0 0 Z " fill="#0F0F0F" transform="translate(205,38)"/>
<path d="M0 0 C2.64 0.33 5.28 0.66 8 1 C8 2.32 8 3.64 8 5 C7.01 4.67 6.02 4.34 5 4 C2.77425665 3.77548542 0.54418481 3.59217122 -1.6875 3.4375 C-2.86699219 3.35371094 -4.04648438 3.26992188 -5.26171875 3.18359375 C-6.16535156 3.12300781 -7.06898438 3.06242188 -8 3 C-8 2.67 -8 2.34 -8 2 C-5.36 1.67 -2.72 1.34 0 1 C0 0.67 0 0.34 0 0 Z " fill="#1D1D1D" transform="translate(155,563)"/>
<path d="M0 0 C2.64 0 5.28 0 8 0 C8.33 1.65 8.66 3.3 9 5 C6.36 4.67 3.72 4.34 1 4 C0.67 2.68 0.34 1.36 0 0 Z " fill="#131313" transform="translate(137,520)"/>
<path d="M0 0 C1.32 0.66 2.64 1.32 4 2 C2.69254251 3.68704193 1.35827971 5.35360035 0 7 C-0.33 7 -0.66 7 -1 7 C-1.33 10.3 -1.66 13.6 -2 17 C-2.33 17 -2.66 17 -3 17 C-3.55353075 5.47835991 -3.55353075 5.47835991 0 0 Z " fill="#262626" transform="translate(151,409)"/>
<path d="M0 0 C4.62 0 9.24 0 14 0 C14 0.33 14 0.66 14 1 C10.7 1 7.4 1 4 1 C4 1.66 4 2.32 4 3 C7.3 3 10.6 3 14 3 C14 3.33 14 3.66 14 4 C10.04 4 6.08 4 2 4 C1.34 2.68 0.68 1.36 0 0 Z " fill="#4E4E4E" transform="translate(154,36)"/>
<path d="M0 0 C0.99 0.33 1.98 0.66 3 1 C2.875 2.8125 2.875 2.8125 2 5 C-1.0625 6.75 -1.0625 6.75 -4 8 C-4.33 7.34 -4.66 6.68 -5 6 C-4.67 5.34 -4.34 4.68 -4 4 C-3.34 4 -2.68 4 -2 4 C-1.34 2.68 -0.68 1.36 0 0 Z " fill="#1A1A1A" transform="translate(181,369)"/>
<path d="M0 0 C-1.0625 1.5 -1.0625 1.5 -3 3 C-6.5625 3.375 -6.5625 3.375 -10 3 C-10.66 2.01 -11.32 1.02 -12 0 C-3.42857143 -1.28571429 -3.42857143 -1.28571429 0 0 Z " fill="#111111" transform="translate(293,127)"/>
<path d="M0 0 C2.12472576 -0.05386629 4.24983652 -0.09273071 6.375 -0.125 C7.55835938 -0.14820313 8.74171875 -0.17140625 9.9609375 -0.1953125 C13 0 13 0 15 2 C9.96266834 3.5111995 5.11828973 2.64599773 0 2 C0 1.34 0 0.68 0 0 Z " fill="#050505" transform="translate(158,37)"/>
<path d="M0 0 C0.33 0 0.66 0 1 0 C0.38461538 7.50769231 0.38461538 7.50769231 -1.5625 10 C-2.036875 10.33 -2.51125 10.66 -3 11 C-3.75 8.875 -3.75 8.875 -4 6 C-2.125 2.6875 -2.125 2.6875 0 0 Z " fill="#181818" transform="translate(98,456)"/>
<path d="M0 0 C0.33 0 0.66 0 1 0 C1.66 2.31 2.32 4.62 3 7 C4.65 7.33 6.3 7.66 8 8 C4.91190305 9.76462683 3.76687864 10 0 10 C-0.66 8.35 -1.32 6.7 -2 5 C-1.34 5 -0.68 5 0 5 C0 3.35 0 1.7 0 0 Z " fill="#363636" transform="translate(98,389)"/>
<path d="M0 0 C0.33 0 0.66 0 1 0 C1.04254356 1.99954746 1.04080783 4.00041636 1 6 C0 7 0 7 -2.28515625 7.09765625 C-3.65994141 7.08025391 -3.65994141 7.08025391 -5.0625 7.0625 C-5.98160156 7.05347656 -6.90070313 7.04445313 -7.84765625 7.03515625 C-8.55792969 7.02355469 -9.26820313 7.01195312 -10 7 C-9.67 6.34 -9.34 5.68 -9 5 C-7.865625 4.87625 -6.73125 4.7525 -5.5625 4.625 C-3.7990625 4.315625 -3.7990625 4.315625 -2 4 C-0.48705712 2.06402968 -0.48705712 2.06402968 0 0 Z " fill="#050505" transform="translate(169,398)"/>
<path d="M0 0 C2.15377564 2.62198774 3.40072174 4.64404172 4 8 C2.02 8.33 0.04 8.66 -2 9 C-1.34 8.67 -0.68 8.34 0 8 C-0.66 6.02 -1.32 4.04 -2 2 C-1.34 2 -0.68 2 0 2 C0 1.34 0 0.68 0 0 Z " fill="#323232" transform="translate(141,512)"/>
<path d="M0 0 C2.83374881 3.20336822 3.5205537 5.78087253 4 10 C3.34 9.34 2.68 8.68 2 8 C1.34 8.66 0.68 9.32 0 10 C-0.38922918 8.71254964 -0.76098036 7.41980403 -1.125 6.125 C-1.43824219 5.04605469 -1.43824219 5.04605469 -1.7578125 3.9453125 C-1.83773437 3.30335937 -1.91765625 2.66140625 -2 2 C-1.34 1.34 -0.68 0.68 0 0 Z " fill="#313131" transform="translate(118,94)"/>
<path d="M0 0 C6.625 0.75 6.625 0.75 10 3 C10 3.99 10 4.98 10 6 C5.56909529 4.79157144 3.01887244 3.48331435 0 0 Z " fill="#121212" transform="translate(228,63)"/>
<path d="M0 0 C0.99 0.33 1.98 0.66 3 1 C2.67 3.97 2.34 6.94 2 10 C1.34 10 0.68 10 0 10 C-1.125 3.375 -1.125 3.375 0 0 Z " fill="#151515" transform="translate(88,475)"/>
<path d="M0 0 C0.66 0 1.32 0 2 0 C2 3.96 2 7.92 2 12 C1.01 11.67 0.02 11.34 -1 11 C-0.67 7.37 -0.34 3.74 0 0 Z " fill="#0F0F0F" transform="translate(149,471)"/>
<path d="M0 0 C0 1.32 0 2.64 0 4 C-2.25 5.125 -2.25 5.125 -5 6 C-7.3125 5.125 -7.3125 5.125 -9 4 C-2.25 0 -2.25 0 0 0 Z " fill="#282828" transform="translate(321,125)"/>
<path d="M0 0 C0.99 0.99 1.98 1.98 3 3 C1.02 5.97 1.02 5.97 -1 9 C-1.99 8.01 -2.98 7.02 -4 6 C-2.68 4.02 -1.36 2.04 0 0 Z " fill="#1B1B1B" transform="translate(208,320)"/>
<path d="M0 0 C0.33 0 0.66 0 1 0 C1.66 3.3 2.32 6.6 3 10 C2.01 10 1.02 10 0 10 C-1.49106457 7.01787087 -1.11941467 4.28390342 -1 1 C-0.67 0.67 -0.34 0.34 0 0 Z " fill="#0C0C0C" transform="translate(101,203)"/>
<path d="M0 0 C2.9375 0.75 2.9375 0.75 6 2 C6.875 4.125 6.875 4.125 7 6 C3.20411134 5.45773019 1.52788007 3.79872437 -1 1 C-0.67 0.67 -0.34 0.34 0 0 Z " fill="#161616" transform="translate(249,74)"/>
<path d="M0 0 C2.31 0 4.62 0 7 0 C7 0.66 7 1.32 7 2 C7.99 2 8.98 2 10 2 C9.34 3.32 8.68 4.64 8 6 C7.01 5.67 6.02 5.34 5 5 C5.33 4.34 5.66 3.68 6 3 C4.02 2.34 2.04 1.68 0 1 C0 0.67 0 0.34 0 0 Z " fill="#4F4F4F" transform="translate(169,561)"/>
<path d="M0 0 C2.97 0 5.94 0 9 0 C9 1.32 9 2.64 9 4 C8.01 4 7.02 4 6 4 C6 3.34 6 2.68 6 2 C3.69 2 1.38 2 -1 2 C-0.67 1.34 -0.34 0.68 0 0 Z " fill="#040404" transform="translate(170,559)"/>
<path d="M0 0 C2 2 2 2 2.125 5.625 C2.08375 6.73875 2.0425 7.8525 2 9 C0.68 9 -0.64 9 -2 9 C-1.814375 8.05125 -1.62875 7.1025 -1.4375 6.125 C-0.71313368 3.10131207 -0.71313368 3.10131207 -2 1 C-1.34 0.67 -0.68 0.34 0 0 Z " fill="#D9D9D9" transform="translate(188,358)"/>
<path d="M0 0 C1.32 0.33 2.64 0.66 4 1 C5.15837626 5.05431692 4.83691257 7.21812119 3 11 C2.67 11 2.34 11 2 11 C1.855625 9.9275 1.71125 8.855 1.5625 7.75 C1.16250558 5.08337051 0.72408076 2.58600271 0 0 Z " fill="#242424" transform="translate(97,197)"/>
<path d="M0 0 C1 3 1 3 -0.25 5.625 C-2 8 -2 8 -5 9 C-4.5206753 4.68607774 -3.2542015 2.83430453 0 0 Z " fill="#131313" transform="translate(271,174)"/>
<path d="M0 0 C1.65 1.65 3.3 3.3 5 5 C4.01 5.99 3.02 6.98 2 8 C0.68 6.02 -0.64 4.04 -2 2 C-1.34 1.34 -0.68 0.68 0 0 Z " fill="#242424" transform="translate(213,46)"/>
<path d="M0 0 C0.33 0.66 0.66 1.32 1 2 C3.11846285 2.68729254 3.11846285 2.68729254 5.5625 3.125 C6.80193359 3.37636719 6.80193359 3.37636719 8.06640625 3.6328125 C8.70449219 3.75398437 9.34257813 3.87515625 10 4 C10 4.33 10 4.66 10 5 C6.37 5.33 2.74 5.66 -1 6 C-0.67 4.02 -0.34 2.04 0 0 Z " fill="#2E2E2E" transform="translate(110,516)"/>
<path d="M0 0 C0.99 0 1.98 0 3 0 C2.50168276 3.68754757 1.89932357 5.60490662 -1 8 C-1.93065133 5.39417629 -2.14917407 4.35801776 -1.0625 1.75 C-0.711875 1.1725 -0.36125 0.595 0 0 Z " fill="#141414" transform="translate(105,140)"/>
<path d="M0 0 C0 0.66 0 1.32 0 2 C1.65 2.33 3.3 2.66 5 3 C5 3.33 5 3.66 5 4 C-1.625 5 -1.625 5 -5 5 C-4.625 3.0625 -4.625 3.0625 -4 1 C-2 0 -2 0 0 0 Z " fill="#393939" transform="translate(264,118)"/>
<path d="M0 0 C1.98 0.66 3.96 1.32 6 2 C6 2.99 6 3.98 6 5 C2.79604584 5 0.90600261 4.25664978 -2 3 C-1.34 2.67 -0.68 2.34 0 2 C0 1.34 0 0.68 0 0 Z " fill="#1F1F1F" transform="translate(199,34)"/>
<path d="M0 0 C-0.66 3.3 -1.32 6.6 -2 10 C-5 6 -5 6 -4.8125 3.3125 C-3.78761923 0.39553165 -3.05613828 0 0 0 Z " fill="#202020" transform="translate(105,412)"/>
<path d="M0 0 C-2.39509338 2.89932357 -4.31245243 3.50168276 -8 4 C-7.6875 2.0625 -7.6875 2.0625 -7 0 C-3.86650268 -1.04449911 -3.01031744 -0.93423645 0 0 Z " fill="#181818" transform="translate(254,300)"/>
<path d="M0 0 C0.66 0.33 1.32 0.66 2 1 C2.59355614 3.64860427 2.74209269 6.29197322 3 9 C0.9375 7.3125 0.9375 7.3125 -1 5 C-0.75 2.25 -0.75 2.25 0 0 Z " fill="#0D0D0D" transform="translate(204,327)"/>
<path d="M0 0 C0.33 0 0.66 0 1 0 C1 3.96 1 7.92 1 12 C0.01 12 -0.98 12 -2 12 C-2 10.35 -2 8.7 -2 7 C-1.67 7 -1.34 7 -1 7 C-0.67 4.69 -0.34 2.38 0 0 Z " fill="#1F1F1F" transform="translate(332,104)"/>
<path d="M0 0 C2.16874252 0.50603992 3.99967627 0.99983813 6 2 C6.625 4.0625 6.625 4.0625 7 6 C2.32307692 4.52307692 2.32307692 4.52307692 0.6875 1.875 C0.460625 1.25625 0.23375 0.6375 0 0 Z " fill="#121212" transform="translate(154,548)"/>
<path d="M0 0 C1.125 1.625 1.125 1.625 2 4 C1.125 7.25 1.125 7.25 0 10 C-1.5625 8.25 -1.5625 8.25 -3 6 C-2.73495121 2.99611368 -2.16695725 2.16695725 0 0 Z " fill="#2A2A2A" transform="translate(171,393)"/>
<path d="M0 0 C0.99 1.32 1.98 2.64 3 4 C0.525 5.485 0.525 5.485 -2 7 C-2.99 6.01 -3.98 5.02 -5 4 C-3.35 3.67 -1.7 3.34 0 3 C0 2.01 0 1.02 0 0 Z " fill="#232323" transform="translate(204,333)"/>
<path d="M0 0 C-1.15173355 2.46800047 -2.04783565 4.04783565 -4 6 C-4.99 5.67 -5.98 5.34 -7 5 C-2.25 0 -2.25 0 0 0 Z " fill="#0B0B0B" transform="translate(313,116)"/>
<path d="M0 0 C2.475 0.495 2.475 0.495 5 1 C4.67 2.65 4.34 4.3 4 6 C3.67 5.01 3.34 4.02 3 3 C2.01 2.67 1.02 2.34 0 2 C0 1.34 0 0.68 0 0 Z " fill="#0F0F0F" transform="translate(105,515)"/>
<path d="M0 0 C0.66 0.33 1.32 0.66 2 1 C1.67 3.64 1.34 6.28 1 9 C-0.76462683 5.91190305 -1 4.76687864 -1 1 C-0.67 0.67 -0.34 0.34 0 0 Z " fill="#323232" transform="translate(212,309)"/>
<path d="M0 0 C0.99 0.99 1.98 1.98 3 3 C1.6875 4.5 1.6875 4.5 0 6 C-0.99 6 -1.98 6 -3 6 C-1.125 1.125 -1.125 1.125 0 0 Z " fill="#262626" transform="translate(275,279)"/>
<path d="M0 0 C1.32 0.33 2.64 0.66 4 1 C4.33 2.65 4.66 4.3 5 6 C4.34 6 3.68 6 3 6 C0 2.53846154 0 2.53846154 0 0 Z " fill="#0A0A0A" transform="translate(271,247)"/>
<path d="M0 0 C1.98 0.495 1.98 0.495 4 1 C3.34 2.98 2.68 4.96 2 7 C1.67 6.34 1.34 5.68 1 5 C0.34 5 -0.32 5 -1 5 C-0.67 3.35 -0.34 1.7 0 0 Z " fill="#1F1F1F" transform="translate(265,182)"/>
<path d="M0 0 C1.5625 1.125 1.5625 1.125 3 3 C2.6875 6.1875 2.6875 6.1875 2 9 C0.4375 7.875 0.4375 7.875 -1 6 C-0.6875 2.8125 -0.6875 2.8125 0 0 Z " fill="#292929" transform="translate(267,104)"/>
<path d="M0 0 C0.99 0.33 1.98 0.66 3 1 C3 3.64 3 6.28 3 9 C2.34 8.67 1.68 8.34 1 8 C0.40644386 5.35139573 0.25790731 2.70802678 0 0 Z " fill="#050505" transform="translate(329,103)"/>
<path d="M0 0 C1.65 0 3.3 0 5 0 C5.33 1.32 5.66 2.64 6 4 C3.03 3.505 3.03 3.505 0 3 C0 2.01 0 1.02 0 0 Z " fill="#191919" transform="translate(320,95)"/>
<path d="M0 0 C0.99 0.66 1.98 1.32 3 2 C2.34 3.32 1.68 4.64 1 6 C-0.32 5.67 -1.64 5.34 -3 5 C-2.01 3.35 -1.02 1.7 0 0 Z " fill="#252525" transform="translate(147,481)"/>
<path d="M0 0 C0.99 0.33 1.98 0.66 3 1 C3 1.66 3 2.32 3 3 C0.5 4.625 0.5 4.625 -2 6 C-1.125 1.125 -1.125 1.125 0 0 Z " fill="#151515" transform="translate(157,459)"/>
<path d="M0 0 C1.33332095 2.6666419 0.67102033 4.16680303 0 7 C-0.66 6.34 -1.32 5.68 -2 5 C-2.99 5.495 -2.99 5.495 -4 6 C-3.67 4.35 -3.34 2.7 -3 1 C-2.01 0.67 -1.02 0.34 0 0 Z " fill="#333333" transform="translate(100,452)"/>
<path d="M0 0 C0.33 0 0.66 0 1 0 C1 1.98 1 3.96 1 6 C0.01 6.33 -0.98 6.66 -2 7 C-2.125 4.625 -2.125 4.625 -2 2 C-1.34 1.34 -0.68 0.68 0 0 Z " fill="#0F0F0F" transform="translate(100,446)"/>
<path d="M0 0 C0.66 0 1.32 0 2 0 C1.67 1.65 1.34 3.3 1 5 C-0.32 5 -1.64 5 -3 5 C-1.625 2.5 -1.625 2.5 0 0 Z " fill="#0A0A0A" transform="translate(94,358)"/>
<path d="M0 0 C2.6875 0.3125 2.6875 0.3125 5 1 C3 3 3 3 -0.125 3.125 C-1.548125 3.063125 -1.548125 3.063125 -3 3 C-1.8125 1.4375 -1.8125 1.4375 0 0 Z " fill="#090909" transform="translate(197,338)"/>
<path d="M0 0 C0.99 0.33 1.98 0.66 3 1 C2.34 2.32 1.68 3.64 1 5 C-0.32 4.67 -1.64 4.34 -3 4 C-2.01 2.68 -1.02 1.36 0 0 Z " fill="#181818" transform="translate(297,142)"/>
</svg>
